<svg id="Capa_1" data-name="Capa 1" xmlns="http://www.w3.org/2000/svg" viewBox="0 0 500 500"><defs><style>.cls-1{fill:#424242;}</style></defs><title>logoMesa de trabajo 16</title><path class="cls-1" d="M51.24,475.78H39.86V487.9a.75.75,0,0,1-.74.75H37.23a.74.74,0,0,1-.74-.75V467.74c0-4.93,2.71-6.89,7.9-6.89,2.19,0,5.67.07,7.23.22a.51.51,0,0,1,.37.52v1.85a.4.4,0,0,1-.41.45H44.42c-3.94,0-4.56,1-4.56,3.85v5.16H51.24a.73.73,0,0,1,.74.74V475A.73.73,0,0,1,51.24,475.78Z"/><path class="cls-1" d="M59.53,465H57.64a.75.75,0,0,1-.74-.74v-3a.75.75,0,0,1,.74-.74h1.89a.75.75,0,0,1,.74.74v3A.74.74,0,0,1,59.53,465Zm-.07,23.65H57.68a.74.74,0,0,1-.74-.75V469a.75.75,0,0,1,.74-.75h1.78a.75.75,0,0,1,.74.75v18.9A.74.74,0,0,1,59.46,488.64Z"/><path class="cls-1" d="M71.65,488.91a29.06,29.06,0,0,1-5.86-.56c-.48-.11-.78-.33-.78-.75v-1.29a.6.6,0,0,1,.66-.56h.15c1.78.22,4.49.41,5.82.41,2.41,0,3.67-.63,3.67-2.63,0-1.11-.67-1.81-2.78-3.08l-3.74-2.22c-2.26-1.37-3.78-3-3.78-5.3,0-3.85,2.9-4.92,6.71-4.92a34.34,34.34,0,0,1,5.78.48.7.7,0,0,1,.7.74v1.22a.57.57,0,0,1-.63.63h-.11c-1.3-.12-3.67-.3-5.74-.3s-3.45.26-3.45,2.15c0,1.11.85,1.81,2.55,2.82l3.67,2.19c3.08,1.82,4.08,3.41,4.08,5.59C78.58,487.31,75.8,488.91,71.65,488.91Z"/><path class="cls-1" d="M94.81,488.5a27.33,27.33,0,0,1-4.63.41c-5,0-7.89-3.56-7.89-9V477c0-5.45,2.82-9,7.89-9a27.11,27.11,0,0,1,4.63.4c.59.11.74.29.74.82v1.33a.57.57,0,0,1-.63.56h-.15a36.43,36.43,0,0,0-4.6-.26c-3,0-4.63,2-4.63,6.15v2.9c0,4.15,1.62,6.15,4.63,6.15a36.56,36.56,0,0,0,4.6-.26h.15a.57.57,0,0,1,.63.55v1.34C95.55,488.16,95.4,488.38,94.81,488.5Z"/><path class="cls-1" d="M113.15,488.64h-1.71a.74.74,0,0,1-.74-.75v-.81a11.34,11.34,0,0,1-5.71,1.82c-3.16,0-6.05-1.37-6.05-6v-.45c0-4,2.34-6,8.94-6h2.74V475c0-3.11-1.07-4.19-4-4.19a54.14,54.14,0,0,0-5.67.3h-.19c-.33,0-.66-.12-.66-.6v-1.3c0-.4.25-.63.77-.7a31.23,31.23,0,0,1,5.74-.48c5.16,0,7.23,2.59,7.23,7V487.9A.74.74,0,0,1,113.15,488.64Zm-2.52-9.86h-2.74c-4.49,0-5.68,1-5.68,3.63v.45c0,2.66,1.26,3.37,3.42,3.37a10.19,10.19,0,0,0,5-1.49Z"/><path class="cls-1" d="M121.89,488.64H120a.71.71,0,0,1-.67-.75V461.47a.67.67,0,0,1,.67-.7h1.93a.67.67,0,0,1,.66.7V487.9A.7.7,0,0,1,121.89,488.64Z"/><path class="cls-1" d="M135.34,460.32,131.15,465c-.33.37-.45.56-.86.56h-2c-.22,0-.33-.12-.33-.26a.57.57,0,0,1,.15-.38l3.64-4.6c.33-.4.44-.55.88-.55h2.45c.26,0,.41.07.41.26A.41.41,0,0,1,135.34,460.32Zm-4.45,28.32h-1.79a.74.74,0,0,1-.74-.75V469a.75.75,0,0,1,.74-.75h1.79a.75.75,0,0,1,.74.75v18.9A.74.74,0,0,1,130.89,488.64Z"/><path class="cls-1" d="M150.57,488.64h-1.71a.74.74,0,0,1-.74-.75v-.81a11.29,11.29,0,0,1-5.7,1.82c-3.16,0-6-1.37-6-6v-.45c0-4,2.33-6,8.93-6h2.74V475c0-3.11-1.08-4.19-4-4.19a54,54,0,0,0-5.67.3h-.19c-.33,0-.66-.12-.66-.6v-1.3c0-.4.25-.63.77-.7a31.36,31.36,0,0,1,5.75-.48c5.16,0,7.23,2.59,7.23,7V487.9A.75.75,0,0,1,150.57,488.64Zm-2.52-9.86h-2.74c-4.49,0-5.68,1-5.68,3.63v.45c0,2.66,1.26,3.37,3.42,3.37a10.17,10.17,0,0,0,5-1.49Z"/><path class="cls-1" d="M182.1,488.35a42.41,42.41,0,0,1-7.38.56c-4.63,0-9.6-3-9.6-11.53v-5c0-9,5.19-11.56,9.94-11.56a44,44,0,0,1,7,.51c.33,0,.63.19.63.55v1.86c0,.25-.15.37-.48.37h-.15c-2.19-.19-3.89-.26-7-.26-3.45,0-6.57,1.85-6.57,8.53v5c0,6.12,2.79,8.53,6.23,8.53,2.26,0,3.78-.15,4.67-.22v-10.6a.69.69,0,0,1,.67-.75h2a.74.74,0,0,1,.7.75v12.45A.81.81,0,0,1,182.1,488.35Z"/><path class="cls-1" d="M203.19,479.49H190.77V480c0,4.41,1.74,6,5.16,6a50.35,50.35,0,0,0,6.59-.41h.19a.53.53,0,0,1,.6.52v1.26c0,.48-.15.74-.74.85a33.31,33.31,0,0,1-6.63.64c-4.27,0-8.41-2-8.41-8.9v-3.33c0-5.3,2.92-8.67,8.22-8.67s8.15,3.4,8.15,8.67v2C203.89,479.16,203.63,479.49,203.19,479.49Zm-2.59-2.82c0-4.19-1.59-5.82-4.85-5.82s-5,1.81-5,5.82V477h9.82Z"/><path class="cls-1" d="M223.19,488.64h-1.77a.74.74,0,0,1-.74-.75V475.71c0-3.74-1.26-4.89-4.08-4.89a11.79,11.79,0,0,0-5,1.44V487.9a.77.77,0,0,1-.74.75H209a.74.74,0,0,1-.7-.75V469a.71.71,0,0,1,.7-.75h1.85a.71.71,0,0,1,.7.75v.7a11.17,11.17,0,0,1,5.9-1.7c4.45,0,6.45,2.77,6.45,7.7V487.9A.74.74,0,0,1,223.19,488.64Z"/><path class="cls-1" d="M244,479.49H231.57V480c0,4.41,1.74,6,5.15,6a50.53,50.53,0,0,0,6.6-.41h.18c.3,0,.6.15.6.52v1.26c0,.48-.15.74-.74.85a33.3,33.3,0,0,1-6.63.64c-4.27,0-8.41-2-8.41-8.9v-3.33c0-5.3,2.92-8.67,8.23-8.67s8.14,3.4,8.14,8.67v2C244.68,479.16,244.43,479.49,244,479.49Zm-2.59-2.82c0-4.19-1.59-5.82-4.85-5.82s-5,1.81-5,5.82V477h9.82Z"/><path class="cls-1" d="M257.51,470.81a9.54,9.54,0,0,0-5.12,1.56V487.9a.76.76,0,0,1-.74.75h-1.82a.74.74,0,0,1-.7-.75V469a.71.71,0,0,1,.7-.75h1.75a.71.71,0,0,1,.7.75v.77a8.89,8.89,0,0,1,5.23-1.77c.52,0,.78.21.78.66v1.52C258.28,470.59,258,470.81,257.51,470.81Z"/><path class="cls-1" d="M274.25,488.64h-1.71a.74.74,0,0,1-.74-.75v-.81a11.32,11.32,0,0,1-5.71,1.82c-3.15,0-6-1.37-6-6v-.45c0-4,2.34-6,8.93-6h2.75V475c0-3.11-1.08-4.19-4-4.19a54.14,54.14,0,0,0-5.67.3h-.19c-.33,0-.66-.12-.66-.6v-1.3c0-.4.26-.63.78-.7a31.2,31.2,0,0,1,5.74-.48c5.16,0,7.23,2.59,7.23,7V487.9A.74.74,0,0,1,274.25,488.64Zm-2.51-9.86H269c-4.48,0-5.67,1-5.67,3.63v.45c0,2.66,1.26,3.37,3.41,3.37a10.19,10.19,0,0,0,5-1.49Z"/><path class="cls-1" d="M283,488.64h-1.93a.71.71,0,0,1-.67-.75V461.47a.67.67,0,0,1,.67-.7H283a.68.68,0,0,1,.67.7V487.9A.71.71,0,0,1,283,488.64Z"/><path class="cls-1" d="M312.45,488.27a35.88,35.88,0,0,1-6.82.64c-5.52,0-8.08-3.6-8.08-9.16v-2.67c0-5.82,2.67-9.07,8.08-9.07a26.86,26.86,0,0,1,4.34.36v-6.9a.7.7,0,0,1,.7-.7h1.89a.67.67,0,0,1,.66.7v25.95C313.23,487.9,313.12,488.16,312.45,488.27ZM310,471.12a28,28,0,0,0-4.34-.26c-3.63,0-4.81,2.26-4.81,6.22v2.67c0,4,1.15,6.3,4.81,6.3,1.26,0,3.08-.11,4.34-.22Z"/><path class="cls-1" d="M333.27,479.49H320.86V480c0,4.41,1.74,6,5.15,6a50.54,50.54,0,0,0,6.6-.41h.19a.52.52,0,0,1,.59.52v1.26c0,.48-.15.74-.74.85a33.21,33.21,0,0,1-6.63.64c-4.27,0-8.41-2-8.41-8.9v-3.33c0-5.3,2.92-8.67,8.23-8.67s8.14,3.4,8.14,8.67v2C334,479.16,333.72,479.49,333.27,479.49Zm-2.59-2.82c0-4.19-1.6-5.82-4.85-5.82s-5,1.81-5,5.82V477h9.82Z"/><path class="cls-1" d="M341.38,488.64h-1.92a.71.71,0,0,1-.67-.75V461.47a.67.67,0,0,1,.67-.7h1.92a.68.68,0,0,1,.67.7V487.9A.71.71,0,0,1,341.38,488.64Z"/><path class="cls-1" d="M372.11,488.71c-1.41.15-5,.19-7.23.19-5.19,0-7.89-2-7.89-6.89V467.74c0-4.93,2.7-6.89,7.89-6.89,2.19,0,5.67.07,7.23.22a.52.52,0,0,1,.37.52v1.85a.41.41,0,0,1-.41.45h-7.15c-3.93,0-4.56,1-4.56,3.85v5.16h11.37a.74.74,0,0,1,.75.74V475a.74.74,0,0,1-.75.74H360.36V482c0,2.81.63,3.85,4.56,3.85h7.15a.41.41,0,0,1,.41.45v1.89A.52.52,0,0,1,372.11,488.71Z"/><path class="cls-1" d="M383,488.91a29,29,0,0,1-5.86-.56c-.48-.11-.78-.33-.78-.75v-1.29a.61.61,0,0,1,.68-.56h.15c1.78.22,4.48.41,5.82.41,2.41,0,3.67-.63,3.67-2.63,0-1.11-.67-1.81-2.78-3.08l-3.74-2.22c-2.26-1.37-3.78-3-3.78-5.3,0-3.85,2.9-4.92,6.71-4.92a34.28,34.28,0,0,1,5.78.48.7.7,0,0,1,.7.74v1.22a.57.57,0,0,1-.63.63h-.11c-1.3-.12-3.67-.3-5.75-.3s-3.45.26-3.45,2.15c0,1.11.86,1.81,2.56,2.82l3.67,2.19c3.08,1.82,4.07,3.41,4.07,5.59C389.93,487.31,387.15,488.91,383,488.91Z"/><path class="cls-1" d="M404,488.71a17.36,17.36,0,0,1-2.41.19c-3.4,0-5-.89-5-5V471l-3.6-.41c-.41,0-.71-.26-.71-.67v-1a.66.66,0,0,1,.71-.66h3.6v-3.63a.75.75,0,0,1,.66-.74l1.93-.29h.11a.59.59,0,0,1,.56.63v4h4a.74.74,0,0,1,.74.75v1.26a.74.74,0,0,1-.74.74h-4v12.94c0,2,.51,2.33,2,2.33h2.07c.52,0,.78.15.78.52v1.3C404.64,488.42,404.46,488.64,404,488.71Z"/><path class="cls-1" d="M421.54,488.64h-1.71a.74.74,0,0,1-.74-.75v-.81a11.34,11.34,0,0,1-5.71,1.82c-3.15,0-6-1.37-6-6v-.45c0-4,2.33-6,8.93-6H419V475c0-3.11-1.08-4.19-4-4.19a53.89,53.89,0,0,0-5.66.3h-.19c-.33,0-.68-.12-.68-.6v-1.3c0-.4.26-.63.78-.7A31.32,31.32,0,0,1,415,468c5.16,0,7.23,2.59,7.23,7V487.9A.74.74,0,0,1,421.54,488.64ZM419,478.78h-2.74c-4.49,0-5.67,1-5.67,3.63v.45c0,2.66,1.26,3.37,3.41,3.37a10.17,10.17,0,0,0,5-1.49Z"/><path class="cls-1" d="M441.54,488.27a35.81,35.81,0,0,1-6.81.64c-5.52,0-8.08-3.6-8.08-9.16v-2.67c0-5.82,2.66-9.07,8.08-9.07a26.79,26.79,0,0,1,4.33.36v-6.9a.7.7,0,0,1,.71-.7h1.89a.67.67,0,0,1,.67.7v25.95C442.32,487.9,442.21,488.16,441.54,488.27Zm-2.48-17.16a28,28,0,0,0-4.33-.26c-3.63,0-4.82,2.26-4.82,6.22v2.67c0,4,1.16,6.3,4.82,6.3,1.26,0,3.07-.11,4.33-.22Z"/><path class="cls-1" d="M454.92,488.91c-5.46,0-8.23-3.6-8.23-9.05V477c0-5.45,2.77-9,8.23-9s8.26,3.59,8.26,9v2.81C463.18,485.31,460.37,488.91,454.92,488.91Zm5-11.86c0-3.78-1.52-6.19-5-6.19s-5,2.37-5,6.19v2.81c0,3.78,1.48,6.2,5,6.2s5-2.38,5-6.2Z"/><path class="cls-1" d="M88.19,386.66,75.85,438c-1.91,8-8,9.2-13.67,9.2S50.32,446,48.41,438L36.06,386.66c0-.17-.08-.25-.08-.41a1.41,1.41,0,0,1,1.49-1.33H49a1.77,1.77,0,0,1,1.66,1.49L61,434.23c.17.91.42,1.24,1.17,1.24s1-.33,1.16-1.24l10.36-47.82a1.69,1.69,0,0,1,1.57-1.49H86.86a1.29,1.29,0,0,1,1.41,1.33A3.2,3.2,0,0,0,88.19,386.66Z"/><path class="cls-1" d="M131,446.16a97.45,97.45,0,0,1-16.07,1.08c-10.69,0-20.14-2.74-20.14-17.82V401.91c0-15.08,9.53-17.73,20.22-17.73a96.74,96.74,0,0,1,16,1.08c1.16.16,1.66.59,1.66,1.66v7.71a1.67,1.67,0,0,1-1.66,1.65H114.14c-3.9,0-5.31,1.32-5.31,5.63v7.54h21.47A1.66,1.66,0,0,1,132,411.1V419a1.66,1.66,0,0,1-1.65,1.66H108.84v8.79c0,4.31,1.41,5.64,5.31,5.64H131a1.67,1.67,0,0,1,1.66,1.66v7.71C132.63,445.5,132.12,446,131,446.16Z"/><path class="cls-1" d="M190.72,446.49H178c-.91,0-1.24-.83-1.66-1.65l-11.1-21-.92.08c-1.74,0-4.31-.16-5.88-.16v21a1.66,1.66,0,0,1-1.66,1.65H146.06a1.66,1.66,0,0,1-1.66-1.65V389.23c0-2.82,1.16-3.57,3.72-4A131.08,131.08,0,0,1,165,384.17c14.09,0,24.94,4.72,24.94,19.39v1.08c0,8.78-4.64,14.17-10.69,16.57l12.52,23.38a2.12,2.12,0,0,1,.25.91C192,446.08,191.64,446.49,190.72,446.49Zm-14.91-42.93c0-5.05-3.9-7.38-10.86-7.38-1.16,0-5.48.17-6.47.25v15.91c.91.08,5,.16,5.88.16,8.71,0,11.44-2.23,11.44-7.87Z"/><path class="cls-1" d="M248.75,446.49h-11.6a1.76,1.76,0,0,1-1.66-1.49l-3-13.59h-17l-3,13.59a1.76,1.76,0,0,1-1.66,1.49h-11.6a1.28,1.28,0,0,1-1.41-1.32,3.72,3.72,0,0,0,.08-.41l12.35-51.38c1.91-8,8-9.2,13.75-9.2s11.77,1.24,13.68,9.2l12.35,51.38a3.72,3.72,0,0,0,.08.41A1.28,1.28,0,0,1,248.75,446.49Zm-23.62-49.31c-.17-.83-.33-1.25-1.08-1.25s-1,.42-1.16,1.25l-5.06,22.87h12.35Z"/><path class="cls-1" d="M292.68,445.83a46.94,46.94,0,0,1-12.35,1.41c-12.6,0-24.53-6.63-24.53-26.35V410.44c0-19.73,11.93-26.27,24.53-26.27a47.1,47.1,0,0,1,12.35,1.41c1.16.33,1.82.67,1.82,1.83v8a1.47,1.47,0,0,1-1.57,1.66h-.25c-3.15-.25-7.7-.66-12.26-.66-5.72,0-10.28,3-10.28,14v10.44c0,11,4.55,14,10.28,14,4.56,0,9.11-.42,12.26-.66h.25a1.46,1.46,0,0,1,1.57,1.65v8C294.51,445.09,293.84,445.5,292.68,445.83Z"/><path class="cls-1" d="M351.37,446.49H338.68c-.91,0-1.24-.83-1.65-1.65l-11.11-21L325,424c-1.73,0-4.31-.16-5.88-.16v21a1.66,1.66,0,0,1-1.66,1.65H306.7a1.66,1.66,0,0,1-1.66-1.65V389.23c0-2.82,1.16-3.57,3.72-4a131,131,0,0,1,16.83-1.08c14.08,0,24.94,4.72,24.94,19.39v1.08c0,8.78-4.64,14.17-10.69,16.57l12.52,23.38a2.19,2.19,0,0,1,.25.91C352.61,446.08,352.28,446.49,351.37,446.49Zm-14.92-42.93c0-5.05-3.89-7.38-10.85-7.38-1.16,0-5.48.17-6.47.25v15.91c.91.08,5,.16,5.88.16,8.7,0,11.44-2.23,11.44-7.87Z"/><path class="cls-1" d="M386.36,447.24c-13.18,0-23.87-5-23.87-23.87V386.49a1.59,1.59,0,0,1,1.65-1.58H375a1.59,1.59,0,0,1,1.65,1.58v36.88c0,8.45,2.23,12,9.7,12s9.77-3.56,9.77-12V386.49a1.6,1.6,0,0,1,1.66-1.58h10.78a1.67,1.67,0,0,1,1.73,1.58v36.88C410.3,442.27,399.52,447.24,386.36,447.24Z"/><path class="cls-1" d="M462.37,446.49H424.74c-1.91,0-3.4-.75-3.4-2.56v-6.64a6,6,0,0,1,1.25-3.64l23.11-35a1.33,1.33,0,0,0,.33-.83c0-.42-.33-.67-.91-.67H424.49a1.59,1.59,0,0,1-1.66-1.57v-9.12a1.6,1.6,0,0,1,1.66-1.58h35.72c1.74,0,3.31.75,3.31,2.32,0,0,.09.83.09,2,0,2.24-.09,5.55-.09,5.55a4.11,4.11,0,0,1-.66,2.16l-23.37,35.8a1.7,1.7,0,0,0-.41.91c0,.33.33.59.91.59h22.38a1.52,1.52,0,0,1,1.65,1.48v9.12A1.66,1.66,0,0,1,462.37,446.49Z"/><path class="cls-1" d="M206.63,294.51c-4.69-.44-15.18-.67-21.76-.67-15.61,0-23.76,5.91-23.76,20.75v60.7a2.24,2.24,0,0,0,2.23,2.23H169a2.23,2.23,0,0,0,2.23-2.23V338.81h34.26a2.24,2.24,0,0,0,2.23-2.23v-4.24a2.24,2.24,0,0,0-2.23-2.23H171.25V314.6c0-8.48,1.9-11.6,13.73-11.6h21.54a1.21,1.21,0,0,0,1.23-1.34v-5.58A1.58,1.58,0,0,0,206.63,294.51Z"/><path class="cls-1" d="M273,334.46h-6a2.06,2.06,0,0,0-2,2.24V368.6c-2.68.22-7.25.67-14.06.67-10.38,0-18.74-7.25-18.74-25.67v-15c0-20.08,9.37-25.66,19.75-25.66,9.48,0,14.62.22,21.2.78h.44c1,0,1.45-.33,1.45-1.12v-5.58c0-1.12-.89-1.56-1.89-1.67a128.47,128.47,0,0,0-21.2-1.56c-14.28,0-29.91,7.7-29.91,34.81v15c0,25.56,15,34.71,28.9,34.71a126.69,126.69,0,0,0,22.21-1.68,2.4,2.4,0,0,0,2-2.45V336.69A2.22,2.22,0,0,0,273,334.46Z"/><path class="cls-1" d="M339.74,294.51c-4.69-.44-15.18-.67-21.76-.67-15.63,0-23.78,5.91-23.78,20.75v43c0,14.84,8.15,20.75,23.78,20.75,6.58,0,17.52-.11,21.76-.56a1.57,1.57,0,0,0,1.12-1.56v-5.69a1.2,1.2,0,0,0-1.23-1.34H318.09c-11.83,0-13.73-3.13-13.73-11.6V338.81h34.26a2.23,2.23,0,0,0,2.23-2.23v-4.24a2.24,2.24,0,0,0-2.23-2.23H304.36V314.6c0-8.48,1.9-11.6,13.73-11.6h21.54a1.21,1.21,0,0,0,1.23-1.34v-5.58A1.58,1.58,0,0,0,339.74,294.51Z"/><path class="cls-1" d="M233.06,34.77c.2,0,.32.06.37.15l0,0a1,1,0,0,1,.23.41l2.25,5.19,0,0h.33l2-5.14a1.61,1.61,0,0,1,.3-.51.75.75,0,0,1,.4-.16h.14a.69.69,0,0,1,.41.1.45.45,0,0,1,.23.44v4.2a.5.5,0,0,1-.23.44.94.94,0,0,1-.47.09H239v.36h5.2l.35-1.86v-.09h-.37l0,0a1.87,1.87,0,0,1-1.28,1.33,2.38,2.38,0,0,1-.43.11,3.35,3.35,0,0,1-.51.06,1.2,1.2,0,0,1-.52-.08c-.08,0-.11-.16-.11-.32V37.56a1.26,1.26,0,0,1,.9.32,1.79,1.79,0,0,1,.34,1v.05h.33V35.84h-.33v0a2,2,0,0,1-.37,1,1.4,1.4,0,0,1-.88.25v-2c0-.15,0-.23.07-.26a.94.94,0,0,1,.45-.07,2.27,2.27,0,0,1,1.39.3,1.66,1.66,0,0,1,.55,1.1v.08h.34V34.43h-7v.34h.05l.19,0a1.89,1.89,0,0,1,.37.06h0a.34.34,0,0,1,.09.25,1.25,1.25,0,0,1,0,.25l0,0a.43.43,0,0,0-.06.18l-1.1,2.73-1.27-3s0-.07,0-.08v-.12a.09.09,0,0,1,0,0,.2.2,0,0,1,.11-.2,2,2,0,0,1,.37-.06l.2,0H236v-.34h-3v.29l0,0Z"/><path class="cls-1" d="M245.06,34.93c.13.07.17.26.17.59v3.83c0,.39-.05.53-.13.59a1,1,0,0,1-.55.14l-.06,0v.33h3.06v-.35h-.07a.91.91,0,0,1-.58-.14,1.15,1.15,0,0,1-.15-.59V37.82l1.92,2.56,0,0h3.66v-.35h-.06a1.06,1.06,0,0,1-.44-.05c-.09,0-.2-.08-.2-.21a2.32,2.32,0,0,1,.1-.46s0-.09.06-.18l.18-.44h1.85l.22.48a2.86,2.86,0,0,0,.08.28,2,2,0,0,1,.07.31.33.33,0,0,1-.07.22,1.63,1.63,0,0,1-.56.06h-.09v.35h3v-.35h-.07a.42.42,0,0,1-.39-.18,4.16,4.16,0,0,1-.51-1l-1.93-4.56,0,0h-.33l-1.95,4.77a4.39,4.39,0,0,1-.34.72.57.57,0,0,1-.43.26h-.13l0,0-.12-.08-1.79-2.41a2.4,2.4,0,0,0,.82-.37,1.43,1.43,0,0,0,.56-1.16,1.41,1.41,0,0,0-1.06-1.38,4.9,4.9,0,0,0-1.46-.2H244.5v.35h.06C244.85,34.82,245,34.87,245.06,34.93Zm7.84,1.48.78,1.84h-1.52Zm-6.13-1.25a.3.3,0,0,1,.11-.23,1,1,0,0,1,1.23.38,1.57,1.57,0,0,1,.11.77c0,.54-.11.87-.31,1a2.22,2.22,0,0,1-1.14.21Z"/><polygon class="cls-1" points="303.11 188.26 300.3 188.2 299.05 184.71 297.85 188.2 294.14 188.29 297.06 190.54 296.01 194.1 299.05 192.02 302.12 194.09 301.08 190.54 303.11 188.26"/><polygon class="cls-1" points="192.47 188.1 191.21 184.62 189.99 188.1 186.28 188.2 189.21 190.45 188.16 194 191.21 191.92 194.29 193.99 193.24 190.45 195.28 188.18 192.47 188.1"/><polygon class="cls-1" points="228.65 96.03 231.92 93.83 235.16 96.03 234.08 92.25 237.18 89.86 233.23 89.74 231.92 86.01 230.59 89.74 226.64 89.86 229.78 92.25 228.65 96.03"/><polygon class="cls-1" points="195.92 105.42 197.81 108.89 198.54 105.04 202.14 104.15 198.96 102.4 199.47 98.49 196.61 101.19 193.04 99.5 194.71 103.08 192.01 105.97 195.92 105.42"/><polygon class="cls-1" points="188.7 135.91 191.97 133.68 195.24 135.89 194.13 132.11 196.31 129.67 193.3 129.6 191.97 125.87 190.66 129.6 186.7 129.69 189.83 132.11 188.7 135.91"/><polygon class="cls-1" points="258.82 89.74 257.49 86.01 256.18 89.74 252.22 89.86 255.33 92.25 254.24 96.03 257.49 93.83 260.75 96.03 259.63 92.25 262.78 89.86 258.82 89.74"/><polygon class="cls-1" points="294.7 103.07 296.38 99.5 292.8 101.19 289.95 98.5 290.44 102.4 287.27 104.15 290.84 105.04 291.6 108.89 293.5 105.42 297.39 105.97 294.7 103.07"/><polygon class="cls-1" points="294.17 135.89 297.44 133.68 300.7 135.91 299.59 132.11 302.7 129.69 298.74 129.6 297.44 125.87 296.1 129.6 293.1 129.67 295.27 132.11 294.17 135.89"/><polygon class="cls-1" points="245 232.21 248.26 234.44 247.17 230.65 249.33 228.22 246.35 228.13 245 224.4 243.71 228.13 239.74 228.24 242.86 230.65 241.74 234.44 245 232.21"/><polygon class="cls-1" points="196.32 156.5 193.54 156.43 192.27 152.94 191.06 156.43 187.36 156.51 190.27 158.77 189.22 162.32 192.27 160.24 195.33 162.31 194.3 158.77 196.32 156.5"/><polygon class="cls-1" points="294.95 162.32 298.02 160.24 301.1 162.31 300.04 158.77 302.09 156.5 299.28 156.43 298.02 152.94 296.79 156.43 293.1 156.51 296.02 158.77 294.95 162.32"/><path class="cls-1" d="M210.85,189.4a1.71,1.71,0,0,0-1,0l-1.52.22h-.07v.27l.09,0a.34.34,0,0,1,.27,0c.06,0,.07.13.07.28l.31,2.05a.43.43,0,0,1,0,.3.46.46,0,0,1-.25.13h-.07v.27l1.76-.28,0-.25h-.07a.44.44,0,0,1-.29,0h0s-.08-.07-.09-.26l-.12-.84.3,0,.28,0a1.74,1.74,0,0,0,.44-.19.87.87,0,0,0,.38-.4.7.7,0,0,0,.07-.52A.75.75,0,0,0,210.85,189.4Zm-.52,1.11a.29.29,0,0,1,0,.14s0,.12-.09.13v0a1,1,0,0,1-.47.18l-.13-1.2s0-.05,0-.07a1.51,1.51,0,0,1,.16,0l.12,0a.43.43,0,0,1,.28.14,1.16,1.16,0,0,1,.14.45A.56.56,0,0,1,210.33,190.51Z"/><path class="cls-1" d="M214.27,190.86a2,2,0,0,1-.37.78,1.78,1.78,0,0,1-.67.27l-.21,0h-.11s0,0-.05-.17l-.29-2.18a.54.54,0,0,1,0-.31,1.43,1.43,0,0,1,.35-.12H213l0-.26-1.81.26,0,.29.07,0a.27.27,0,0,1,.21,0l0,0a.21.21,0,0,1,.14.19l.27,2.26a.27.27,0,0,1-.06.25.54.54,0,0,1-.25,0h-.09l.09.29,2.86-.45,0-1.24-.21.05Z"/><path class="cls-1" d="M216.69,188.57h.07a.4.4,0,0,1,.25,0,.35.35,0,0,1,.11.25l.18,1.45a1.58,1.58,0,0,1,0,.61.65.65,0,0,1-.61.45.53.53,0,0,1-.62-.23,1.21,1.21,0,0,1-.12-.5l-.21-1.58a.48.48,0,0,1,0-.3.55.55,0,0,1,.31-.1h.09l0-.26-1.76.26,0,.26h.05a.61.61,0,0,1,.29,0c.07,0,.07.11.08.27l.2,1.56a1.28,1.28,0,0,0,.28.7c.09.1.23.09.37.15a1.19,1.19,0,0,0,.25.09c.09,0,.16.11.27.11a1.36,1.36,0,0,0,.35,0,1.22,1.22,0,0,0,.94-.48c.06-.09,0-.23.06-.32a1.66,1.66,0,0,0,0-.33c0-.14.09-.23.05-.37l-.17-1.5a.75.75,0,0,1,0-.22l0,0,0,0s0,0,.21-.09l.06,0v-.25l-1.22.2.09.24Z"/><path class="cls-1" d="M219,190l.35.1a1.3,1.3,0,0,1,.38.12.35.35,0,0,1,.15.29.39.39,0,0,1-.09.32.39.39,0,0,1-.37.2.9.9,0,0,1-.55-.11,1.49,1.49,0,0,1-.46-.71v0h-.26l.15,1.25v.06l.25,0v-.07s0,0,0,0a.23.23,0,0,0,0,0l0,0h.1l.1,0a.78.78,0,0,0,.31,0h.29a1.32,1.32,0,0,0,.89-.52,1,1,0,0,0,.21-.76.83.83,0,0,0-.37-.64,1.06,1.06,0,0,0-.41-.22l-.41-.12a1.55,1.55,0,0,1-.47-.2c-.05,0-.09,0-.11,0a.27.27,0,0,1-.13-.25.32.32,0,0,1,.1-.3.37.37,0,0,1,.32-.15.58.58,0,0,1,.53.15,1.77,1.77,0,0,1,.39.52v.07l.27-.06-.17-1.16-.27.05v.14l0,0-.06,0a.47.47,0,0,0-.25-.07,5,5,0,0,0-.51,0,1.16,1.16,0,0,0-.78.45,1.06,1.06,0,0,0-.17.74.83.83,0,0,0,.29.54A2.4,2.4,0,0,0,219,190Z"/><path class="cls-1" d="M270.58,188.14a.76.76,0,0,1,.21-.05h.06l.06-.22-1-.19,0,.28h.07a.32.32,0,0,1,.24.13.65.65,0,0,1,0,.28l-.27,1.38a1.41,1.41,0,0,1-.17.56.58.58,0,0,1-.53.26h-.11a.43.43,0,0,1-.37-.39,2.23,2.23,0,0,1,0-.52l.28-1.52a.27.27,0,0,1,.38-.28h0l.1-.26-1.45-.21h0l-.09.19.07,0a.77.77,0,0,1,.25.13.72.72,0,0,1,0,.26l-.27,1.55a1.44,1.44,0,0,0,0,.7,1,1,0,0,0,.9.64,1.15,1.15,0,0,0,.27,0,1,1,0,0,0,.63-.2,1.38,1.38,0,0,0,.4-.89l.28-1.44A1,1,0,0,1,270.58,188.14Z"/><path class="cls-1" d="M273,190.33l0,0a1.45,1.45,0,0,1-.49.57,1,1,0,0,1-.39.09h-.22a.46.46,0,0,1-.22-.07h0v-.18l.38-2.12a.65.65,0,0,1,.11-.27l0,0s.05,0,.09,0a.58.58,0,0,1,.17,0l.08,0,0-.29-1.56-.24v.25h0a.19.19,0,0,1,.14,0l.07,0a.24.24,0,0,1,0,.22l-.36,2.18a.38.38,0,0,1-.17.21h-.27l0,.23,2.45.42.39-1.13Z"/><path class="cls-1" d="M273.31,189.28c.05-.11.09-.19.14-.28a.73.73,0,0,1,.12-.15.37.37,0,0,1,.15-.13.67.67,0,0,1,.39,0l-.4,2.27a1,1,0,0,1-.15.29.29.29,0,0,1-.23,0h0l-.15.24,1.53.26h.08l0-.24,0,0a.75.75,0,0,1-.27-.09.69.69,0,0,1,0-.34l.38-2.31a1.69,1.69,0,0,1,.36.15,1,1,0,0,1,.17.69v.06l.25,0,.18-1-2.55-.42-.19,1.05.2,0Z"/><path class="cls-1" d="M276.11,189.07c.07.06.09.16,0,.28l-.32,2a1.51,1.51,0,0,1-.09.28.43.43,0,0,1-.26,0h-.07l0,.23,1.48.26,0-.23h0c-.13,0-.23-.07-.25-.12s0-.13,0-.29l.11-.67.6,1.42.94.15,0-.1v.12l.9.14.07-.22h-.07c-.09,0-.13,0-.18-.1s-.06,0-.06-.08a.64.64,0,0,1,.09-.21v0a1.57,1.57,0,0,1,.13-.25l.82.1V192a.16.16,0,0,1,0,.12v.25h-.34l0,.25,1.42.22.07-.22h-.08a.26.26,0,0,1-.13-.11,2.11,2.11,0,0,1-.11-.56l-.5-2.57-.21,0-1.35,2.36a3.06,3.06,0,0,1-.21.32l0,0a.2.2,0,0,1-.19.07l-.07,0v0l-.13,0v0l-.61-1.38a1.4,1.4,0,0,0,.39-.13.79.79,0,0,0,.37-.55.78.78,0,0,0-.37-.86,1.41,1.41,0,0,0-.6-.21l-1.42-.25,0,.26,0,0C276.06,189,276.1,189.05,276.11,189.07Zm3.66,1.47.17.91-.6-.11Zm-2.81-1.23s0-.06.05-.08h0s.08,0,.19,0a.31.31,0,0,1,.3.24,2.59,2.59,0,0,1,0,.43c0,.27-.12.4-.23.45a.53.53,0,0,1-.27.06l-.22,0Z"/><path class="cls-1" d="M150,175.95a.9.9,0,0,0,.65.38h.06a1.87,1.87,0,0,0,1.77-1.11,3.91,3.91,0,0,0-1.5-2.59,3,3,0,0,1-.47.12,2.74,2.74,0,0,0-.53.17.94.94,0,0,0-.36.78c0,.15,0,.29,0,.46A3.84,3.84,0,0,0,150,175.95Z"/><path class="cls-1" d="M154.09,174.1a2.77,2.77,0,0,0,1.38-1.74.67.67,0,0,0-.07-.7,3.38,3.38,0,0,0-2.38-1l-.31,0c-.32,0-.5.32-.64.62a.89.89,0,0,0,0,1,8,8,0,0,0,1.68,1.64A.8.8,0,0,0,154.09,174.1Z"/><path class="cls-1" d="M145,166.41h0a3,3,0,0,0-1.32,1.81c-.07.31,0,.53.11.66a3.31,3.31,0,0,0,2.73.88c.29,0,.42-.29.57-.52l.09-.11a1.08,1.08,0,0,0-.07-1,7,7,0,0,0-1.76-1.57A.6.6,0,0,0,145,166.41Z"/><path class="cls-1" d="M148.17,167.78c.13,0,.27-.08.42-.12a1.8,1.8,0,0,0,.53-.19.91.91,0,0,0,.35-.8,4.41,4.41,0,0,1,0-.44,4.09,4.09,0,0,0-.42-1.8.81.81,0,0,0-.63-.33h-.07a1.84,1.84,0,0,0-1.77,1.18A3.72,3.72,0,0,0,148.17,167.78Z"/><path class="cls-1" d="M154.6,167.2a3.73,3.73,0,0,0-2.53,1.58c0,.15.09.31.12.47a2.19,2.19,0,0,0,.15.48.82.82,0,0,0,.77.35l.48,0a3.65,3.65,0,0,0,1.79-.39.8.8,0,0,0,.34-.61A1.84,1.84,0,0,0,154.6,167.2Z"/><path class="cls-1" d="M144.57,173a3.86,3.86,0,0,0,2.59-1.46,1.9,1.9,0,0,1-.11-.47,2.46,2.46,0,0,0-.17-.53.82.82,0,0,0-.72-.38h-.49a3.9,3.9,0,0,0-1.83.33,1,1,0,0,0-.37.64A1.81,1.81,0,0,0,144.57,173Z"/><path class="cls-1" d="M151.45,170.12a1.89,1.89,0,0,0-1.89-1.88,1.91,1.91,0,1,0,1.89,1.88Z"/><path class="cls-1" d="M151.71,167.7a8.3,8.3,0,0,0,1.66-1.72.91.91,0,0,0,.09-.33,2.74,2.74,0,0,0-1.8-1.34.65.65,0,0,0-.31-.06.55.55,0,0,0-.37.13,3.45,3.45,0,0,0-.91,2.71c0,.32.34.49.64.63A.87.87,0,0,0,151.71,167.7Z"/><path class="cls-1" d="M147.35,176c.29.09.53.09.67-.07a3.47,3.47,0,0,0,1-2.68c0-.32-.35-.51-.62-.66a1.32,1.32,0,0,0-.59-.15.78.78,0,0,0-.43.13,9.33,9.33,0,0,0-1.71,1.67.82.82,0,0,0-.1.33A2.86,2.86,0,0,0,147.35,176Z"/><path class="cls-1" d="M180.78,241.09a1.39,1.39,0,0,0-.43.13.71.71,0,0,0-.28.61,3.5,3.5,0,0,0,0,.36,2.9,2.9,0,0,0,.27,1.41.73.73,0,0,0,.5.3h.05a1.48,1.48,0,0,0,1.4-.89,3.09,3.09,0,0,0-1.18-2A3.65,3.65,0,0,1,180.78,241.09Z"/><path class="cls-1" d="M182,240.76a6.62,6.62,0,0,0,1.33,1.3.71.71,0,0,0,.25.09,2.15,2.15,0,0,0,1.07-1.36c.07-.21.1-.41,0-.55a2.55,2.55,0,0,0-1.86-.76h-.24c-.26,0-.4.24-.52.48A.68.68,0,0,0,182,240.76Z"/><path class="cls-1" d="M176.42,236.13a2.34,2.34,0,0,0-1,1.41.58.58,0,0,0,.09.52,2.58,2.58,0,0,0,2.15.68c.23,0,.34-.21.45-.4l.05-.09a.92.92,0,0,0,0-.79,6.13,6.13,0,0,0-1.39-1.24A.57.57,0,0,0,176.42,236.13Z"/><path class="cls-1" d="M178.9,237.19l.33-.11a1.26,1.26,0,0,0,.41-.15.68.68,0,0,0,.28-.61,1.2,1.2,0,0,1,0-.35,3.33,3.33,0,0,0-.33-1.42.65.65,0,0,0-.51-.25h0a1.46,1.46,0,0,0-1.4.92A3,3,0,0,0,178.9,237.19Z"/><path class="cls-1" d="M182.18,238.72a.63.63,0,0,0,.6.28,2.17,2.17,0,0,1,.39,0,2.84,2.84,0,0,0,1.38-.31.68.68,0,0,0,.29-.48,1.46,1.46,0,0,0-.9-1.45,2.94,2.94,0,0,0-2,1.25,3.13,3.13,0,0,1,.09.36A2.59,2.59,0,0,0,182.18,238.72Z"/><path class="cls-1" d="M176.08,241.26a3,3,0,0,0,2-1.14,1.69,1.69,0,0,1-.1-.37,1.93,1.93,0,0,0-.11-.4.65.65,0,0,0-.56-.3H177a3.09,3.09,0,0,0-1.45.25.7.7,0,0,0-.28.5A1.4,1.4,0,0,0,176.08,241.26Z"/><path class="cls-1" d="M178.51,239a1.49,1.49,0,0,0,1.48,1.51,1.51,1.51,0,0,0,1.49-1.51,1.48,1.48,0,0,0-3,0Z"/><path class="cls-1" d="M180.89,237.14a.7.7,0,0,0,.8,0,6.67,6.67,0,0,0,1.3-1.34.54.54,0,0,0,0-.27,2.13,2.13,0,0,0-1.38-1.05,1.93,1.93,0,0,0-.25,0,.35.35,0,0,0-.27.11,2.57,2.57,0,0,0-.72,2.12C180.43,236.89,180.69,237,180.89,237.14Z"/><path class="cls-1" d="M176.89,242.52a2.36,2.36,0,0,0,1.37,1.12c.23.06.43.06.54-.06a2.64,2.64,0,0,0,.79-2.09c0-.25-.23-.4-.45-.53a1.3,1.3,0,0,0-.47-.1.56.56,0,0,0-.33.1,6.73,6.73,0,0,0-1.32,1.31A.59.59,0,0,0,176.89,242.52Z"/><path class="cls-1" d="M168.86,148.71l-.37.09c-9.29,2.41-9.38,20.94-9.38,21.72v.79l.67-.42c13.91-8.66,9.27-21.68,9.21-21.81Z"/><path class="cls-1" d="M165.06,171.34c-2.56,1.64-5.21,3.33-5.9,6.63-.47,2.21.19,5.31.84,8.29.58,2.59,1.14,5.26.88,7.05l-.25,1.74,1-1.42c7.61-10.37,7.82-16,8-21.37.06-1.29.11-2.51.27-3.79l.15-1.41-.93,1.07A18.07,18.07,0,0,1,165.06,171.34Z"/><path class="cls-1" d="M150.31,191a29.49,29.49,0,0,1,6.9,4.61l.73.73,0-1a22.37,22.37,0,0,0-2.58-10.7c-2-3.31-6.12-5.56-7.8-6.36-1.1-.53-2.16-1-3.19-1.43-3-1.29-5.58-2.41-8.2-4.85l-1.52-1.42.82,1.9c.49,1.12.92,2.25,1.32,3.36,1.44,3.76,2.8,7.32,6.21,10.41A38.53,38.53,0,0,0,150.31,191Z"/><path class="cls-1" d="M172.52,245.44l-.94-.33.39.92c2.31,5.49,8.44,8.49,11.77,9.1a8.58,8.58,0,0,0,1.52.13c4.36,0,9.45-2.92,12.33-5.63l.65-.61-2.55-.37-.7-.31c-2.75-1.19-5.36-2.29-8.3-2.29a12,12,0,0,0-2.27.21A18.47,18.47,0,0,0,182,247a8.13,8.13,0,0,1-3.06.69h-.33a11.26,11.26,0,0,1-4-1.32C173.9,246,173.2,245.69,172.52,245.44Z"/><path class="cls-1" d="M182,226.42l-1.55-.66,1,1.33a53.2,53.2,0,0,1,5.18,8.27c3.28,6.14,5.87,11,16.95,11.41l.66,0-.23-.61C200.71,237.08,190.07,229.85,182,226.42Z"/><path class="cls-1" d="M217.66,259.48c3.84,0,8.8-2,10.82-5.82l.48-.92-1,.31c-1.9.58-4.17,0-6.27-.63a16.39,16.39,0,0,0-4.54-.9c-2.46,0-4.47,1.18-6.35,3.71l-.15.2.11.23C211.8,258.08,214.35,259.48,217.66,259.48Z"/><path class="cls-1" d="M212.61,261.24a8.59,8.59,0,0,0-2.56.44,5.29,5.29,0,0,0-2.87,3.07,6.12,6.12,0,0,0,.68,4.83,14.45,14.45,0,0,0,.81,1.29,9.17,9.17,0,0,1,1.58,3.33,13.34,13.34,0,0,1,.07,2.75c0,.68,0,1.4,0,2.08l.08,1,.69-.8c2.72-3.18,6.64-12.16,4.83-16.11A3.37,3.37,0,0,0,212.61,261.24Z"/><path class="cls-1" d="M168.5,187.76l-.29.61c-.34.72-.61,1.44-.88,2.13a15.15,15.15,0,0,1-2.06,4.13,21.17,21.17,0,0,1-3.42,3.26,17,17,0,0,0-3.92,4c-2,3.23-1.33,10.7-1.1,12.91l.14,1.33,3.67-6.41a11.26,11.26,0,0,1,5.88-5,9.41,9.41,0,0,0,4.47-3.25c3.13-4.14.4-10.27-2.07-13.18Z"/><path class="cls-1" d="M148,144.4a15.18,15.18,0,0,1-2.08-4.14c-.27-.7-.53-1.41-.88-2.13l-.27-.61-.44.52c-2.47,2.9-5.2,9-2,13.18a9.36,9.36,0,0,0,4.45,3.25,11.16,11.16,0,0,1,5.86,4.94l3.68,6.45.15-1.33c.24-2.21.88-9.69-1.1-12.92a17.74,17.74,0,0,0-3.91-4A22.27,22.27,0,0,1,148,144.4Z"/><path class="cls-1" d="M167,236.67a8.81,8.81,0,0,0,5.67-2.27,6.82,6.82,0,0,1,3.89-1.91l2.8-.28-2.75-.58c-4.49-.93-6.79-1.67-9.86-4.79-2.57-2.56-8.16-4.65-12.51-4.65a9.31,9.31,0,0,0-3.09.45l-1.24.44,1.26.39c2.86.91,4.33,3.39,5.91,6s3.35,5.68,6.86,6.68A10.77,10.77,0,0,0,167,236.67Z"/><path class="cls-1" d="M177.4,214.19l-.41-.25-.21.45a4.24,4.24,0,0,0-.31.92c-.28,1-.64,2.3-2.93,4.75a5.84,5.84,0,0,0-1.8,3.09,5.27,5.27,0,0,0,.58,4.16c1,1.54,3,2.64,6,3.23l.9.18-2-3.75c-.73-1.44.27-3,1.3-4.67s2-3.28,1.62-5A5.37,5.37,0,0,0,177.4,214.19Z"/><path class="cls-1" d="M187,266.34c.67.48,1.33,1,2,1.45,2.65,1.84,6.63,3.8,9.85,3.8a4.65,4.65,0,0,0,4.93-3.68,4.11,4.11,0,0,0-.68-3.26,3.2,3.2,0,0,0-2.53-.89,18.49,18.49,0,0,0-2.78.29c-.72.12-1.37.23-2,.27a16.37,16.37,0,0,1-6.48-1.13,23.08,23.08,0,0,0-7.64-1.46l-2.24,0,1.64.79A36.72,36.72,0,0,1,187,266.34Z"/><path class="cls-1" d="M158.58,139.4a1.82,1.82,0,0,0-1.31,1.15.63.63,0,0,0-.09.26.52.52,0,0,1,0,.21s0,.1,0,.13a2.12,2.12,0,0,0,1.2,1.77,1.34,1.34,0,0,0,.61.1,1.88,1.88,0,0,0,1.5-.63l0,0a1.28,1.28,0,0,0,.39-1,2.47,2.47,0,0,0-.09-.88,1.72,1.72,0,0,0-.62-.82,2.65,2.65,0,0,0-1.08-.34A3.88,3.88,0,0,0,158.58,139.4Z"/><path class="cls-1" d="M156.52,131.85a.26.26,0,0,1-.09-.11l-.07-.09h0l-.14-.16s-1.53,7.39,2,6.86a1.61,1.61,0,0,0,.94-2A10.27,10.27,0,0,0,156.6,132h0Z"/><path class="cls-1" d="M160,137.74a3.14,3.14,0,0,0,0,.53c0,.06,0,.09,0,.11a.46.46,0,0,0,.24.25.44.44,0,0,0,.23.09l0,0h.35a2.18,2.18,0,0,0,1.72-1.48,13.53,13.53,0,0,0,.82-5.88s0-.05,0-.06a10.65,10.65,0,0,0-3.18,4.05c-.09.22-.16.46-.21.61l0,0a.19.19,0,0,0,0,.1v1.45Z"/><path class="cls-1" d="M154.37,136.71a.25.25,0,0,1-.11,0,8.26,8.26,0,0,0-3.41-.22,5,5,0,0,0,.27.68.22.22,0,0,1,.07.15s0,.09.08.16a5.6,5.6,0,0,0,2.32,2.55,3.46,3.46,0,0,0,2.92.07,1.42,1.42,0,0,0,.2-1.52A4.14,4.14,0,0,0,154.37,136.71Z"/><path class="cls-1" d="M163.66,137.52s-1.42,1.85-2.11,1.81c0,0-.32,1.43.84,1.66a2.83,2.83,0,0,0,.67,0h.05a5.12,5.12,0,0,0,2.59-1.86,11.68,11.68,0,0,0,2-2.72s0,0,0-.05A24.54,24.54,0,0,0,163.66,137.52Z"/><path class="cls-1" d="M150.55,144.63h.21l1.15,0H152a9,9,0,0,0,2.71-.47,3.81,3.81,0,0,1,1.44-1.51,1.41,1.41,0,0,0,0-.33c0-1.18-1.24-1.25-1.92-1.18h0a3.49,3.49,0,0,0-.37.06h0a4.38,4.38,0,0,0-1.42.6,5.44,5.44,0,0,0-2,2.87Z"/><path class="cls-1" d="M157.83,143.8a2.54,2.54,0,0,0-.35-.14h0a1.38,1.38,0,0,0-1.72.47.85.85,0,0,0-.13.22h0c-.37.69-.74,2.11-.52,5.1l.24-.19.45-.33c1.49-1.06,2.94-2.26,2.65-4.35A1.11,1.11,0,0,0,157.83,143.8Z"/><path class="cls-1" d="M161,143.76a.86.86,0,0,0-.32,0,1.21,1.21,0,0,0-.34.06s-1.2.29-1,2.36c0,.1,0,.21.06.32s0,.13,0,.21a7.84,7.84,0,0,0,.23.87c.17.3.37.69.59,1a11.5,11.5,0,0,0,1.91,2.15,17.56,17.56,0,0,0,.23-5.1A3.75,3.75,0,0,1,161,143.76Z"/><path class="cls-1" d="M162.9,144.72c.13,0,.33,0,.53,0a10.54,10.54,0,0,0,3.6-.83c-.16-.58-2.44-2-2.44-2-2.88-1.21-2.74,1.12-2.74,1.12A1.88,1.88,0,0,0,162.9,144.72Z"/><path class="cls-1" d="M148.05,204.94a1.31,1.31,0,0,0,.52-.93,2.64,2.64,0,0,0,0-.89,1.57,1.57,0,0,0-.52-.88,2.66,2.66,0,0,0-1-.49,3,3,0,0,0-.48,0,1.88,1.88,0,0,0-1.44,1,.65.65,0,0,0-.13.27.6.6,0,0,0,0,.2.33.33,0,0,0-.05.13,2.11,2.11,0,0,0,1,1.92,1.69,1.69,0,0,0,.57.19A1.9,1.9,0,0,0,148,205Z"/><path class="cls-1" d="M146.28,200.69a1.64,1.64,0,0,0,1.19-1.93,10.33,10.33,0,0,0-1.89-4.62l-.09-.13-.08-.12-.07-.1h0l-.12-.17S142.72,200.72,146.28,200.69Z"/><path class="cls-1" d="M150.86,200.16a14,14,0,0,0,1.58-5.72v-.07a10.29,10.29,0,0,0-3.67,3.62,6.35,6.35,0,0,0-.33.58v0s0,.06,0,.11l-.17,1.44,0,.17c0,.18,0,.38-.08.51a.48.48,0,0,0,0,.11.53.53,0,0,0,.23.28c.11.07.15.11.21.12h0a.5.5,0,0,0,.18,0l.15,0A2.16,2.16,0,0,0,150.86,200.16Z"/><path class="cls-1" d="M142.72,198.55l-.09-.07a8.42,8.42,0,0,0-3.35-.65,4.36,4.36,0,0,0,.19.7c0,.06,0,.1.05.16a.28.28,0,0,0,0,.15,5.54,5.54,0,0,0,2,2.84,3.4,3.4,0,0,0,2.88.45,1.44,1.44,0,0,0,.41-1.48A4.16,4.16,0,0,0,142.72,198.55Z"/><path class="cls-1" d="M156,200s0,0,0-.05a23.46,23.46,0,0,0-4.09.61s-1.65,1.64-2.33,1.52c0,0-.51,1.37.63,1.76a3.1,3.1,0,0,0,.65.1l0,0v0a5.11,5.11,0,0,0,2.79-1.51A11.83,11.83,0,0,0,156,200Z"/><path class="cls-1" d="M143.74,204.65a.78.78,0,0,0,.05-.35c.14-1.16-1.06-1.4-1.73-1.44h0a2.9,2.9,0,0,0-.39,0,4.17,4.17,0,0,0-1.48.4,5.35,5.35,0,0,0-2.35,2.6h.12l.2,0,1.16.12.11,0h0a8.75,8.75,0,0,0,2.75-.1A3.64,3.64,0,0,1,143.74,204.65Z"/><path class="cls-1" d="M144.92,205.82h0a1.37,1.37,0,0,0-1.75.26.45.45,0,0,0-.17.19h0c-.47.62-1,2-1.18,5a1.71,1.71,0,0,1,.27-.17,3,3,0,0,1,.49-.25c1.59-.86,3.2-1.87,3.18-4a1.13,1.13,0,0,0-.48-.84A3.31,3.31,0,0,0,144.92,205.82Z"/><path class="cls-1" d="M148,206.3a1.2,1.2,0,0,0-.33,0s-1.23.14-1.26,2.21a3,3,0,0,0,0,.34.93.93,0,0,0,0,.19,7.64,7.64,0,0,0,.12.91c.13.32.26.74.45,1.1a11.25,11.25,0,0,0,1.62,2.4,18.34,18.34,0,0,0,.88-5,3.72,3.72,0,0,1-1.16-2A.82.82,0,0,0,148,206.3Z"/><path class="cls-1" d="M152.19,205.08c-2.69-1.59-2.86.75-2.86.75a1.93,1.93,0,0,0,.84,1.78c.1,0,.31.07.52.09a10.37,10.37,0,0,0,3.67-.35C154.27,206.76,152.19,205.08,152.19,205.08Z"/><path class="cls-1" d="M169.55,215.21l0,0a1,1,0,0,0,.29-.75,2,2,0,0,0-.07-.68,1.24,1.24,0,0,0-.5-.61,1.78,1.78,0,0,0-.8-.26,1.62,1.62,0,0,0-.37.05,1.4,1.4,0,0,0-1,.87.41.41,0,0,0-.06.2c0,.06,0,.11,0,.15a.36.36,0,0,0,0,.1,1.6,1.6,0,0,0,.92,1.35,1.2,1.2,0,0,0,.45.09A1.46,1.46,0,0,0,169.55,215.21Z"/><path class="cls-1" d="M167.83,212.14a1.24,1.24,0,0,0,.71-1.56,7.73,7.73,0,0,0-1.89-3.31l-.07-.09-.08-.08-.05-.06h0l-.11-.13S165.15,212.52,167.83,212.14Z"/><path class="cls-1" d="M169.24,211.66a2.58,2.58,0,0,0,0,.4l0,.08a.31.31,0,0,0,.18.19.46.46,0,0,0,.17.07h.29a1.63,1.63,0,0,0,1.3-1.12,10.38,10.38,0,0,0,.63-4.47.07.07,0,0,0,0,0,7.81,7.81,0,0,0-2.4,3.09c-.09.15-.13.34-.19.47h0a.39.39,0,0,1,0,.09v1.23Z"/><path class="cls-1" d="M164.94,210.88l-.07,0a6.38,6.38,0,0,0-2.6-.17,2.9,2.9,0,0,0,.23.52s0,.08.06.12a.21.21,0,0,0,.05.11,4.26,4.26,0,0,0,1.74,1.95,2.68,2.68,0,0,0,2.23.05,1.08,1.08,0,0,0,.15-1.15A3.07,3.07,0,0,0,164.94,210.88Z"/><path class="cls-1" d="M172,211.49s-1.1,1.39-1.61,1.38c0,0-.25,1.08.64,1.26a3.73,3.73,0,0,0,.5,0h0a3.76,3.76,0,0,0,2-1.41,8.34,8.34,0,0,0,1.52-2.07s0,0,0,0A17,17,0,0,0,172,211.49Z"/><path class="cls-1" d="M162.21,216.89l.88,0h.09a6.63,6.63,0,0,0,2.07-.35,2.69,2.69,0,0,1,1.08-1.15,1.65,1.65,0,0,0,0-.26c0-.89-.94-1-1.46-.9h0l-.29,0a3.54,3.54,0,0,0-1.08.47,4.23,4.23,0,0,0-1.53,2.18h.27Z"/><path class="cls-1" d="M165.68,220.4a2,2,0,0,1,.33-.24c1.13-.82,2.24-1.74,2-3.31a.87.87,0,0,0-.44-.58h0l-.25-.1h0a1,1,0,0,0-1.28.35.81.81,0,0,0-.12.17h0c-.28.51-.56,1.6-.39,3.87A.8.8,0,0,1,165.68,220.4Z"/><path class="cls-1" d="M168.78,218.44v0a3.28,3.28,0,0,0,.17.67,6,6,0,0,0,.44.81,8.62,8.62,0,0,0,1.46,1.63,14.06,14.06,0,0,0,.17-3.87,2.75,2.75,0,0,1-1.08-1.42.73.73,0,0,0-.25,0,1,1,0,0,0-.25,0s-.92.23-.74,1.79a1.26,1.26,0,0,1,0,.25A1.61,1.61,0,0,1,168.78,218.44Z"/><path class="cls-1" d="M171.83,217a7.78,7.78,0,0,0,2.73-.62c-.12-.43-1.85-1.51-1.85-1.51-2.19-.91-2.09.86-2.09.86a1.42,1.42,0,0,0,.8,1.25Z"/><path class="cls-1" d="M204.2,257l0,0a1,1,0,0,0,.29-.76,1.49,1.49,0,0,0-.08-.7,1.2,1.2,0,0,0-.47-.63,2.23,2.23,0,0,0-.83-.27,1.61,1.61,0,0,0-.39.06,1.42,1.42,0,0,0-1,.89.57.57,0,0,0-.07.2.4.4,0,0,1,0,.15.43.43,0,0,1,0,.11,1.66,1.66,0,0,0,.94,1.37,1,1,0,0,0,.46.08A1.48,1.48,0,0,0,204.2,257Z"/><path class="cls-1" d="M201.19,248.87l-.08-.09-.07-.06-.09-.12s-1.19,5.69,1.5,5.29a1.26,1.26,0,0,0,.72-1.59,7.87,7.87,0,0,0-1.91-3.34v0Z"/><path class="cls-1" d="M204.09,251.59a2.93,2.93,0,0,0-.19.47v1.35a2.64,2.64,0,0,0,0,.4.49.49,0,0,1,0,.1.41.41,0,0,0,.18.18.81.81,0,0,0,.19.07h.27a1.7,1.7,0,0,0,1.35-1.13,11,11,0,0,0,.64-4.55s0,0,0,0A8,8,0,0,0,204.09,251.59Z"/><path class="cls-1" d="M199.52,252.61l-.09,0a6.08,6.08,0,0,0-2.62-.19c.07.21.15.37.21.54a.51.51,0,0,1,.06.11.69.69,0,0,1,.06.12,4.39,4.39,0,0,0,1.79,2,2.81,2.81,0,0,0,2.26.05,1.11,1.11,0,0,0,.15-1.18A3.21,3.21,0,0,0,199.52,252.61Z"/><path class="cls-1" d="M209.79,252.37a19,19,0,0,0-3.09.87s-1.09,1.42-1.62,1.4c0,0-.25,1.11.64,1.29a3,3,0,0,0,.51,0h0a4,4,0,0,0,2-1.44,8.7,8.7,0,0,0,1.52-2.1Z"/><path class="cls-1" d="M200.92,256.91c0-.91-1-1-1.48-.92h0l-.29,0a3.9,3.9,0,0,0-1.1.47,4.2,4.2,0,0,0-1.55,2.22h.25l.89,0h.09a7.14,7.14,0,0,0,2.11-.35,2.66,2.66,0,0,1,1.09-1.18A.43.43,0,0,0,200.92,256.91Z"/><path class="cls-1" d="M200.26,262.29l.33-.26c1.14-.81,2.27-1.74,2-3.35a1,1,0,0,0-.46-.6.87.87,0,0,0-.25-.1h0a1.09,1.09,0,0,0-1.33.36l-.11.18h0c-.29.52-.59,1.62-.41,3.93C200.12,262.41,200.2,262.32,200.26,262.29Z"/><path class="cls-1" d="M205.54,263.44a14,14,0,0,0,.17-3.93,3,3,0,0,1-1.1-1.44.51.51,0,0,0-.24,0,.66.66,0,0,0-.25,0s-.94.23-.74,1.82c0,.08,0,.16,0,.26a.55.55,0,0,0,0,.15c.06.22.11.45.18.69s.29.52.46.8A8.18,8.18,0,0,0,205.54,263.44Z"/><path class="cls-1" d="M206.52,258.83a7.82,7.82,0,0,0,2.77-.64c-.11-.44-1.87-1.53-1.87-1.53-2.23-.94-2.13.86-2.13.86a1.46,1.46,0,0,0,.82,1.28C206.2,258.8,206.37,258.83,206.52,258.83Z"/><path class="cls-1" d="M338.65,176.66h.08a.92.92,0,0,0,.63-.39,3.9,3.9,0,0,0,.36-1.8c0-.15,0-.3,0-.46a.92.92,0,0,0-.37-.76,2.09,2.09,0,0,0-.54-.17,1.86,1.86,0,0,1-.45-.14,4,4,0,0,0-1.5,2.58A1.89,1.89,0,0,0,338.65,176.66Z"/><path class="cls-1" d="M335.31,174.43a.93.93,0,0,0,.33-.12,7.91,7.91,0,0,0,1.67-1.63.92.92,0,0,0,0-1c-.17-.3-.34-.59-.66-.62h-.31a3.34,3.34,0,0,0-2.39,1c-.18.18-.13.43-.07.69A2.79,2.79,0,0,0,335.31,174.43Z"/><path class="cls-1" d="M342.23,169.45a1.18,1.18,0,0,0,.07.12c.13.23.28.48.57.5a3.22,3.22,0,0,0,2.73-.87c.16-.12.17-.32.11-.66a3,3,0,0,0-1.3-1.79h0a.7.7,0,0,0-.33.12,7.93,7.93,0,0,0-1.77,1.57A1.08,1.08,0,0,0,342.23,169.45Z"/><path class="cls-1" d="M341.08,164.42h0a.83.83,0,0,0-.65.34,3.92,3.92,0,0,0-.41,1.81c0,.14,0,.29-.05.43a.93.93,0,0,0,.35.81,2.52,2.52,0,0,0,.55.18l.41.13a3.86,3.86,0,0,0,1.62-2.51A1.89,1.89,0,0,0,341.08,164.42Z"/><path class="cls-1" d="M333.66,169.38a.94.94,0,0,0,.37.62,3.73,3.73,0,0,0,1.77.38,3.64,3.64,0,0,1,.5,0,.87.87,0,0,0,.77-.37,2.2,2.2,0,0,0,.15-.48c0-.16.09-.3.13-.48a3.83,3.83,0,0,0-2.55-1.58A1.9,1.9,0,0,0,333.66,169.38Z"/><path class="cls-1" d="M345.94,171.45a.94.94,0,0,0-.38-.62,4,4,0,0,0-1.83-.33,3.92,3.92,0,0,1-.45,0h0a.8.8,0,0,0-.72.39,2.07,2.07,0,0,0-.17.52,2.41,2.41,0,0,1-.1.46,3.75,3.75,0,0,0,2.57,1.45A1.8,1.8,0,0,0,345.94,171.45Z"/><path class="cls-1" d="M341.75,170.46a1.92,1.92,0,0,0-1.91-1.88,1.88,1.88,0,0,0-1.9,1.88,1.91,1.91,0,1,0,3.81,0Z"/><path class="cls-1" d="M337.66,168a.89.89,0,0,0,1,0c.29-.14.6-.32.64-.63a3.42,3.42,0,0,0-.94-2.73.49.49,0,0,0-.33-.13,1,1,0,0,0-.35.08,2.68,2.68,0,0,0-1.77,1.34,1,1,0,0,0,.07.32A8.15,8.15,0,0,0,337.66,168Z"/><path class="cls-1" d="M342,176.35a2.92,2.92,0,0,0,1.73-1.44.58.58,0,0,0-.13-.31,7.61,7.61,0,0,0-1.68-1.67.65.65,0,0,0-.43-.13,1.3,1.3,0,0,0-.58.13c-.27.15-.57.35-.6.67a3.33,3.33,0,0,0,1,2.65C341.52,176.43,341.75,176.44,342,176.35Z"/><path class="cls-1" d="M308.47,244.21h.05a.69.69,0,0,0,.51-.29,3,3,0,0,0,.27-1.41c0-.11,0-.23,0-.35a.67.67,0,0,0-.29-.6,1.29,1.29,0,0,0-.43-.13l-.34-.1a3.07,3.07,0,0,0-1.19,2A1.47,1.47,0,0,0,308.47,244.21Z"/><path class="cls-1" d="M305.85,242.47a.71.71,0,0,0,.25-.09,6.52,6.52,0,0,0,1.32-1.29.73.73,0,0,0,0-.8c-.12-.24-.25-.47-.51-.48h-.25a2.53,2.53,0,0,0-1.86.76.52.52,0,0,0-.07.56A2.22,2.22,0,0,0,305.85,242.47Z"/><path class="cls-1" d="M313,236.44h0a1.07,1.07,0,0,0-.25.1,5.59,5.59,0,0,0-1.37,1.24.8.8,0,0,0-.06.78l.06.1a.64.64,0,0,0,.44.4,2.59,2.59,0,0,0,2.15-.68c.11-.1.13-.27.09-.52A2.39,2.39,0,0,0,313,236.44Z"/><path class="cls-1" d="M310.37,234.62h0a.66.66,0,0,0-.5.27,3,3,0,0,0-.33,1.41,1.45,1.45,0,0,1,0,.34.75.75,0,0,0,.27.63,1.5,1.5,0,0,0,.43.14c.09,0,.23.07.33.11a2.91,2.91,0,0,0,1.26-2A1.47,1.47,0,0,0,310.37,234.62Z"/><path class="cls-1" d="M304.56,238.52a.69.69,0,0,0,.29.48,2.86,2.86,0,0,0,1.38.3,2.8,2.8,0,0,1,.39,0,.61.61,0,0,0,.6-.29,2.52,2.52,0,0,0,.14-.37,1.69,1.69,0,0,1,.09-.36,3,3,0,0,0-2-1.25A1.47,1.47,0,0,0,304.56,238.52Z"/><path class="cls-1" d="M314.18,240.12a.71.71,0,0,0-.31-.48,3.12,3.12,0,0,0-1.44-.25h-.37a.65.65,0,0,0-.56.31,2,2,0,0,0-.13.42,1.86,1.86,0,0,1-.08.36,3,3,0,0,0,2,1.13A1.44,1.44,0,0,0,314.18,240.12Z"/><path class="cls-1" d="M307.91,239.35a1.5,1.5,0,1,0,1.5-1.46A1.48,1.48,0,0,0,307.91,239.35Z"/><path class="cls-1" d="M308.49,237.46c.23-.1.47-.23.5-.49a2.63,2.63,0,0,0-.72-2.11.31.31,0,0,0-.27-.1.91.91,0,0,0-.26,0,2.07,2.07,0,0,0-1.39,1,.58.58,0,0,0,0,.26,6.48,6.48,0,0,0,1.31,1.35A.65.65,0,0,0,308.49,237.46Z"/><path class="cls-1" d="M310.73,241.19a1.14,1.14,0,0,0-.47.11c-.21.13-.44.26-.45.51a2.64,2.64,0,0,0,.8,2.11c.11.13.29.14.52.06a2.32,2.32,0,0,0,1.36-1.11.57.57,0,0,0-.09-.26,6.16,6.16,0,0,0-1.32-1.31A.54.54,0,0,0,310.73,241.19Z"/><path class="cls-1" d="M320.54,149l-.14.37c0,.12-4.69,13.17,9.21,21.82l.66.42,0-.78c0-.79-.1-19.32-9.37-21.72Z"/><path class="cls-1" d="M319.45,168.8c.16,1.27.21,2.49.26,3.8.2,5.4.42,11,8,21.36l1,1.43-.26-1.73c-.27-1.8.32-4.48.88-7.06.64-3,1.32-6.08.84-8.28-.7-3.3-3.36-5-5.9-6.64a17.83,17.83,0,0,1-4.12-3.19l-.92-1.09Z"/><path class="cls-1" d="M353.2,172.33c-2.61,2.42-5.2,3.54-8.2,4.85-1,.43-2.09.89-3.2,1.43-1.67.81-5.79,3-7.8,6.34a22.18,22.18,0,0,0-2.57,10.7v1l.73-.74a30,30,0,0,1,6.89-4.6,36.85,36.85,0,0,0,7.28-4.77c3.42-3.09,4.78-6.65,6.23-10.41.41-1.11.84-2.22,1.32-3.36l.82-1.9Z"/><path class="cls-1" d="M305.66,255.45c3.33-.6,9.47-3.62,11.77-9.11l.38-.91-.93.33a22.09,22.09,0,0,0-2.05.88,11.77,11.77,0,0,1-4.06,1.33h-.32a8.49,8.49,0,0,1-3-.69,18,18,0,0,0-2.43-.72,11.81,11.81,0,0,0-2.27-.22c-3,0-5.55,1.11-8.3,2.3l-.73.3-2.53.39.65.61c2.88,2.72,8,5.63,12.34,5.63A8.75,8.75,0,0,0,305.66,255.45Z"/><path class="cls-1" d="M285.39,246.51l-.23.61.65,0c11.07-.42,13.67-5.27,16.95-11.4a53.69,53.69,0,0,1,5.17-8.27l1.06-1.33-1.56.66C299.33,230.17,288.69,237.4,285.39,246.51Z"/><path class="cls-1" d="M272.23,251.85a16,16,0,0,0-4.53.9c-2.1.63-4.36,1.2-6.27.62l-1-.29.48.92c2,3.82,7,5.82,10.83,5.82,3.32,0,5.84-1.4,6.89-3.82l.11-.22-.16-.21C276.71,253,274.7,251.85,272.23,251.85Z"/><path class="cls-1" d="M279.35,262a9,9,0,0,0-2.57-.45,3.36,3.36,0,0,0-3.3,1.95c-1.81,3.93,2.11,12.93,4.83,16.11l.68.79.09-1a16.82,16.82,0,0,0,0-2.08,12.35,12.35,0,0,1,.07-2.74,9.06,9.06,0,0,1,1.59-3.34c.31-.46.57-.87.8-1.29a6.2,6.2,0,0,0,.68-4.83A5.27,5.27,0,0,0,279.35,262Z"/><path class="cls-1" d="M327.54,198.21a21.7,21.7,0,0,1-3.42-3.26,15.23,15.23,0,0,1-2.09-4.14c-.24-.69-.53-1.41-.85-2.11l-.29-.62-.43.51c-2.47,2.9-5.21,9-2.06,13.19a9.57,9.57,0,0,0,4.46,3.25,11.12,11.12,0,0,1,5.88,5l3.68,6.4.13-1.32c.25-2.21.89-9.69-1.08-12.91A17.16,17.16,0,0,0,327.54,198.21Z"/><path class="cls-1" d="M347.12,151.56c3.14-4.14.4-10.29-2.07-13.19l-.41-.51-.3.61c-.33.71-.6,1.43-.87,2.12a15.84,15.84,0,0,1-2.07,4.12A20.63,20.63,0,0,1,338,148a17.73,17.73,0,0,0-3.94,4c-2,3.22-1.33,10.7-1.1,12.92l.17,1.32,3.67-6.44a11.16,11.16,0,0,1,5.87-4.94A9.7,9.7,0,0,0,347.12,151.56Z"/><path class="cls-1" d="M312.73,232l-2.74.56,2.79.29c1.66.16,2.53.87,3.91,1.93a8.81,8.81,0,0,0,5.66,2.26,11.27,11.27,0,0,0,3-.47c3.5-1,5.22-3.91,6.86-6.69s3-5.15,5.93-6l1.24-.39L338.2,223a10,10,0,0,0-3.11-.44c-4.33,0-9.94,2.09-12.5,4.64C319.49,230.27,317.21,231,312.73,232Z"/><path class="cls-1" d="M312.61,214.71l-.21-.44-.41.24a5.36,5.36,0,0,0-2.76,3.12c-.43,1.71.61,3.38,1.61,5s2,3.25,1.32,4.69l-2,3.75.88-.19c3-.59,5-1.69,6-3.23a5.22,5.22,0,0,0,.6-4.15,5.9,5.9,0,0,0-1.8-3.11c-2.28-2.44-2.66-3.77-2.93-4.73A5.41,5.41,0,0,0,312.61,214.71Z"/><path class="cls-1" d="M302.38,266.65a37.46,37.46,0,0,1,5.9-3.77l1.62-.78-2.23,0a23.31,23.31,0,0,0-7.64,1.45,16.51,16.51,0,0,1-6.47,1.14c-.62,0-1.29-.15-2-.27a17.75,17.75,0,0,0-2.77-.3,3.22,3.22,0,0,0-2.53.89,4.08,4.08,0,0,0-.69,3.26,4.64,4.64,0,0,0,4.92,3.69c3.22,0,7.21-2,9.86-3.79C301,267.65,301.72,267.14,302.38,266.65Z"/><path class="cls-1" d="M328.64,140.82a2.23,2.23,0,0,0-.1.89,1.23,1.23,0,0,0,.39,1l0,.05a1.89,1.89,0,0,0,1.5.62,1.45,1.45,0,0,0,.58-.1,2.17,2.17,0,0,0,1.22-1.78,1,1,0,0,0,0-.13c0-.07,0-.13,0-.2a.53.53,0,0,0-.08-.28,1.82,1.82,0,0,0-1.31-1.15,2.9,2.9,0,0,0-.49-.07,2.52,2.52,0,0,0-1.07.35A1.55,1.55,0,0,0,328.64,140.82Z"/><path class="cls-1" d="M333.07,132h0l-.06.1-.09.1-.1.12h0a10,10,0,0,0-2.48,4.33,1.63,1.63,0,0,0,.93,2.07c3.51.51,2-6.88,2-6.88Z"/><path class="cls-1" d="M329.38,136.34v0c-.06-.15-.14-.41-.25-.63a10.38,10.38,0,0,0-3.18-4.06v.07a13.89,13.89,0,0,0,.81,5.89,2.24,2.24,0,0,0,1.75,1.48h.34l0,0a.49.49,0,0,0,.23-.08.39.39,0,0,0,.23-.26s0-.06,0-.11a4.13,4.13,0,0,0,0-.52v-1.63A.28.28,0,0,1,329.38,136.34Z"/><path class="cls-1" d="M335.15,137s-.07,0-.12,0a4.22,4.22,0,0,0-2.34,1.82,1.44,1.44,0,0,0,.21,1.52,3.43,3.43,0,0,0,2.91-.07,5.47,5.47,0,0,0,2.32-2.56,1,1,0,0,0,.08-.15,1.06,1.06,0,0,1,.07-.15,4.52,4.52,0,0,0,.27-.68A8.33,8.33,0,0,0,335.15,137Z"/><path class="cls-1" d="M321.73,136.71s0,0,0,0a11.65,11.65,0,0,0,2,2.72,5.1,5.1,0,0,0,2.57,1.86h0s0,0,0,0a2.79,2.79,0,0,0,.66,0c1.19-.23.84-1.67.84-1.67-.68,0-2.11-1.82-2.11-1.82A23,23,0,0,0,321.73,136.71Z"/><path class="cls-1" d="M337.5,144.92c.39,0,.78,0,1.15,0H339a5.4,5.4,0,0,0-2-2.88,4.43,4.43,0,0,0-1.42-.61,2.62,2.62,0,0,0-.37-.05h0c-.67-.05-1.91,0-1.91,1.19a2.12,2.12,0,0,0,0,.35,3.64,3.64,0,0,1,1.44,1.51,8.9,8.9,0,0,0,2.71.45h.13Z"/><path class="cls-1" d="M333.66,149.24l.43.32.23.19c.22-3-.16-4.41-.52-5.09h0l-.15-.21A1.37,1.37,0,0,0,332,144h0a2.15,2.15,0,0,0-.35.15h0a1.16,1.16,0,0,0-.59.78C330.71,147,332.15,148.18,333.66,149.24Z"/><path class="cls-1" d="M330,146.78a1.92,1.92,0,0,0,0-.33c.23-2.07-.95-2.35-1-2.35a1.49,1.49,0,0,0-.31-.05,1,1,0,0,0-.33,0,3.72,3.72,0,0,1-1.42,1.87,18.12,18.12,0,0,0,.23,5.12,11.32,11.32,0,0,0,1.91-2.16c.23-.35.43-.74.58-1A6.76,6.76,0,0,0,330,147h0A.45.45,0,0,0,330,146.78Z"/><path class="cls-1" d="M327.54,143.4s.14-2.33-2.74-1.12c0,0-2.28,1.39-2.42,2a10.13,10.13,0,0,0,3.58.83,2.84,2.84,0,0,0,.52,0A1.85,1.85,0,0,0,327.54,143.4Z"/><path class="cls-1" d="M344.5,203.64a.26.26,0,0,0,0-.12c0-.07,0-.13,0-.2a.56.56,0,0,0-.14-.25,1.86,1.86,0,0,0-1.45-1,4.65,4.65,0,0,0-.49,0,2.82,2.82,0,0,0-1,.48,1.5,1.5,0,0,0-.51.89,2,2,0,0,0,0,.9,1.22,1.22,0,0,0,.5.93l.05,0a1.86,1.86,0,0,0,1.57.44,1.23,1.23,0,0,0,.57-.19A2.11,2.11,0,0,0,344.5,203.64Z"/><path class="cls-1" d="M344.06,194.11h0l-.07.1-.07.11-.08.12h0a10.24,10.24,0,0,0-1.9,4.63,1.62,1.62,0,0,0,1.19,1.92c3.55,0,1-7.06,1-7.06Z"/><path class="cls-1" d="M340.62,198.31a10.58,10.58,0,0,0-3.67-3.62.29.29,0,0,0,0,.08,14.09,14.09,0,0,0,1.57,5.72,2.26,2.26,0,0,0,1.92,1.24l.15,0,.18,0h0a.4.4,0,0,0,.2-.11.39.39,0,0,0,.22-.28v-.12a2.74,2.74,0,0,0-.05-.53l0-.15L341,199s0-.09,0-.11v0A4.59,4.59,0,0,0,340.62,198.31Z"/><path class="cls-1" d="M345,202.47a3.45,3.45,0,0,0,2.88-.46,5.66,5.66,0,0,0,2-2.83,1.59,1.59,0,0,0,0-.17c0-.06,0-.11.05-.16a3.24,3.24,0,0,0,.17-.72,8.07,8.07,0,0,0-3.34.68s-.06,0-.09.05a4.08,4.08,0,0,0-2.09,2.11A1.43,1.43,0,0,0,345,202.47Z"/><path class="cls-1" d="M333.43,200.33a11.76,11.76,0,0,0,2.31,2.42,5.11,5.11,0,0,0,2.82,1.52h0a2.33,2.33,0,0,0,.63-.11c1.14-.37.63-1.76.63-1.76-.69.14-2.32-1.52-2.32-1.52a23.49,23.49,0,0,0-4.13-.61Z"/><path class="cls-1" d="M349.23,203.63a4.39,4.39,0,0,0-1.47-.43h-.43c-.67,0-1.89.27-1.75,1.43a1.73,1.73,0,0,0,.05.35,3.57,3.57,0,0,1,1.63,1.31,8.09,8.09,0,0,0,2.73.1h.12c.4,0,.79-.07,1.15-.12l.2,0h.13A5.43,5.43,0,0,0,349.23,203.63Z"/><path class="cls-1" d="M346.25,206.38a1.39,1.39,0,0,0-1.75-.24l0,0a3.34,3.34,0,0,0-.32.19h0a1.17,1.17,0,0,0-.5.84c0,2.09,1.6,3.12,3.2,4a3.8,3.8,0,0,1,.47.25l.27.17c-.15-3-.71-4.36-1.18-5A1.82,1.82,0,0,1,346.25,206.38Z"/><path class="cls-1" d="M341.69,206.64a1,1,0,0,0-.32,0,1.24,1.24,0,0,0-.33.08,3.68,3.68,0,0,1-1.16,2,18.18,18.18,0,0,0,.89,5,10.81,10.81,0,0,0,1.62-2.4c.18-.38.33-.78.44-1.09a6.78,6.78,0,0,0,.12-.93v-.19a2.8,2.8,0,0,0,0-.33C342.92,206.78,341.71,206.64,341.69,206.64Z"/><path class="cls-1" d="M337.2,205.4s-2.08,1.68-2.15,2.27a10.12,10.12,0,0,0,3.66.36c.2,0,.41-.09.52-.1a2,2,0,0,0,.85-1.76S339.89,203.81,337.2,205.4Z"/><path class="cls-1" d="M319.59,214.08a2,2,0,0,0-.07.68,1,1,0,0,0,.29.75l0,0A1.38,1.38,0,0,0,321,216a1,1,0,0,0,.44-.08,1.6,1.6,0,0,0,.93-1.36.38.38,0,0,0,0-.09s0-.09,0-.15a.42.42,0,0,0-.08-.21,1.42,1.42,0,0,0-1-.87,2.84,2.84,0,0,0-.36-.07,1.88,1.88,0,0,0-.82.28A1.18,1.18,0,0,0,319.59,214.08Z"/><path class="cls-1" d="M323,207.37l-.06.07a.33.33,0,0,0-.07.08l-.08.09h0a7.56,7.56,0,0,0-1.89,3.29,1.23,1.23,0,0,0,.72,1.56c2.66.39,1.48-5.22,1.48-5.22Z"/><path class="cls-1" d="M320.16,210.68l0,0a2.46,2.46,0,0,0-.19-.47,7.8,7.8,0,0,0-2.4-3.09.14.14,0,0,0,0,.06,10.39,10.39,0,0,0,.63,4.47,1.66,1.66,0,0,0,1.32,1.12h.27a.32.32,0,0,0,.17-.06.29.29,0,0,0,.2-.2.45.45,0,0,0,0-.08,1.74,1.74,0,0,0,0-.39l0-.14v-1.11A.09.09,0,0,1,320.16,210.68Z"/><path class="cls-1" d="M324.54,211.17l-.09,0a3.17,3.17,0,0,0-1.78,1.38,1.09,1.09,0,0,0,.16,1.17,2.75,2.75,0,0,0,2.21-.05,4.16,4.16,0,0,0,1.74-2,.43.43,0,0,0,.07-.11.39.39,0,0,1,.05-.12,3.71,3.71,0,0,0,.21-.53A6.32,6.32,0,0,0,324.54,211.17Z"/><path class="cls-1" d="M314.35,211s0,0,0,0a10,10,0,0,0,1.5,2.08,3.91,3.91,0,0,0,2,1.41h0a2.73,2.73,0,0,0,.5,0c.89-.19.63-1.29.63-1.29-.51,0-1.59-1.35-1.59-1.35A16.18,16.18,0,0,0,314.35,211Z"/><path class="cls-1" d="M326.22,217.19h.11c.28,0,.58,0,.86,0h.27a4.17,4.17,0,0,0-1.52-2.19,3.72,3.72,0,0,0-1.08-.46l-.3-.05h0c-.51,0-1.44,0-1.44.9a.49.49,0,0,0,0,.28,2.66,2.66,0,0,1,1.06,1.14A6.83,6.83,0,0,0,326.22,217.19Z"/><path class="cls-1" d="M323.51,217c0-.06-.07-.13-.1-.17a1.07,1.07,0,0,0-1.3-.36h0l-.27.11h0a.83.83,0,0,0-.44.58c-.23,1.58.89,2.51,2,3.31.09.05.21.16.33.24a.66.66,0,0,1,.18.16c.19-2.27-.1-3.36-.39-3.87Z"/><path class="cls-1" d="M320,220.22a8.65,8.65,0,0,0,.44-.79,3,3,0,0,0,.18-.68h0c0-.06,0-.09,0-.15s0-.16,0-.26c.17-1.56-.72-1.78-.76-1.79a.81.81,0,0,0-.23,0h-.25a2.75,2.75,0,0,1-1.06,1.44,13.61,13.61,0,0,0,.15,3.88A8.53,8.53,0,0,0,320,220.22Z"/><path class="cls-1" d="M318.76,216s.11-1.79-2.07-.85c0,0-1.75,1-1.86,1.51a8.27,8.27,0,0,0,2.72.61c.15,0,.33,0,.41,0A1.39,1.39,0,0,0,318.76,216Z"/><path class="cls-1" d="M285.19,257.35a1.44,1.44,0,0,0,1.17.48,1.15,1.15,0,0,0,.45-.08,1.69,1.69,0,0,0,.93-1.38.61.61,0,0,0,0-.1.35.35,0,0,1,0-.15.39.39,0,0,0-.07-.2,1.43,1.43,0,0,0-1-.9,3.72,3.72,0,0,0-.37,0,2,2,0,0,0-.81.27,1.19,1.19,0,0,0-.48.63,1.69,1.69,0,0,0-.08.69,1,1,0,0,0,.29.78Z"/><path class="cls-1" d="M288.47,248.93l-.12.12-.06.07-.08.08-.07.09h0a7.92,7.92,0,0,0-1.91,3.35,1.28,1.28,0,0,0,.72,1.59C289.65,254.63,288.47,248.93,288.47,248.93Z"/><path class="cls-1" d="M284.95,254.51h.17a1.18,1.18,0,0,0,.18-.07.45.45,0,0,0,.19-.19.65.65,0,0,1,0-.09,3.75,3.75,0,0,0,0-.42v-1.24a.25.25,0,0,1,0-.09v0c0-.12-.11-.31-.18-.47a7.92,7.92,0,0,0-2.45-3.13v0a10.39,10.39,0,0,0,.63,4.53,1.7,1.7,0,0,0,1.34,1.15Z"/><path class="cls-1" d="M290.46,255.48a4.37,4.37,0,0,0,1.8-2s0-.09.06-.14l.05-.1c.07-.16.14-.32.22-.53a6.2,6.2,0,0,0-2.63.18l-.09,0a3.07,3.07,0,0,0-1.8,1.4,1.08,1.08,0,0,0,.13,1.17A2.7,2.7,0,0,0,290.46,255.48Z"/><path class="cls-1" d="M282.7,253.57a18.56,18.56,0,0,0-3.1-.87v0a8.78,8.78,0,0,0,1.52,2.09,3.84,3.84,0,0,0,2,1.44h0a3.08,3.08,0,0,0,.51,0c.91-.19.66-1.3.66-1.3C283.78,255,282.7,253.57,282.7,253.57Z"/><path class="cls-1" d="M291.68,259h.09a8.07,8.07,0,0,0,.9,0h.25a4.2,4.2,0,0,0-1.54-2.24,3.42,3.42,0,0,0-1.09-.46l-.3,0h0c-.53,0-1.48,0-1.48.92a1.17,1.17,0,0,0,0,.27,2.75,2.75,0,0,1,1.1,1.17A6.56,6.56,0,0,0,291.68,259Z"/><path class="cls-1" d="M288.81,262.38a3.62,3.62,0,0,1,.31.23c.08,0,.15.12.2.15.18-2.3-.12-3.39-.41-3.93h0c0-.06-.07-.12-.1-.17a1.08,1.08,0,0,0-1.33-.36h0a1.39,1.39,0,0,0-.26.12.77.77,0,0,0-.43.58C286.52,260.61,287.65,261.54,288.81,262.38Z"/><path class="cls-1" d="M286,260.62a.72.72,0,0,0,0-.17c0-.08,0-.16,0-.24.17-1.6-.74-1.82-.75-1.82a.57.57,0,0,0-.25,0,1.08,1.08,0,0,0-.24,0,3,3,0,0,1-1.12,1.46,14.6,14.6,0,0,0,.17,3.94,9.39,9.39,0,0,0,1.49-1.68c.17-.28.33-.56.45-.8A6.29,6.29,0,0,0,286,260.62Z"/><path class="cls-1" d="M284.1,257.86s.1-1.81-2.13-.86c0,0-1.75,1.07-1.87,1.53a7.84,7.84,0,0,0,2.77.63l.41,0A1.45,1.45,0,0,0,284.1,257.86Z"/><polygon class="cls-1" points="238.84 141.32 239.04 141.32 239.04 140.26 239.04 139.28 239.04 137.25 239.04 136.26 239.04 134.22 239.04 133.23 239.04 132.82 238.08 132.82 237.05 132.82 236.27 132.82 234.69 132.82 234.31 132.82 234.31 137.64 234.31 138.55 234.31 139.28 234.31 140.26 234.31 141.32 237.97 141.32 238.84 141.32"/><polygon class="cls-1" points="251.68 141.32 254.8 141.32 254.8 140.26 254.8 139.28 254.8 138.62 254.8 137.74 254.8 132.82 254.74 132.82 253.17 132.82 252.4 132.82 251.35 132.82 250.07 132.82 250.07 133.23 250.07 134.22 250.07 136.26 250.07 137.25 250.07 139.28 250.07 140.26 250.07 141.32 250.82 141.32 251.68 141.32"/><path class="cls-1" d="M223.81,282.17c15.87.85,19.12-10.45,19.76-14a77.52,77.52,0,0,0,0-21.42c-3.71-19-21.12-10-21.12-10l-.61.34a29.84,29.84,0,0,1-3.31-1.84,97.59,97.59,0,0,1-14.63-13l1.64-3.12,3.58.38L206.58,217l.63-2.49.58.59a51.31,51.31,0,0,0,10,9.11,38.56,38.56,0,0,0,5.45,3.23l.84.34.64-.34h0a45.75,45.75,0,0,1,9.72-3.73h0a42.73,42.73,0,0,1,10-1.17H245a42.65,42.65,0,0,1,10,1.17,45.62,45.62,0,0,1,9.74,3.73h0l.63.34.85-.34a39.62,39.62,0,0,0,5.46-3.23,51.85,51.85,0,0,0,9.94-9.11l.6-.61.63,2.51-2.53,2.57,3.59-.38,1.67,3.17.71-3.52,3.18-.55-.07.1,0,.07-.14.15-.17.21,0,.06a2.21,2.21,0,0,1-.19.23l0,0v0a.15.15,0,0,0,0,.06v0l-.43.52h0l-.22.24-.21.23-.32.35a96.61,96.61,0,0,1-16.5,15,30.4,30.4,0,0,1-3.31,1.84l-.61-.35s-17.41-9.05-21.13,10a77.87,77.87,0,0,0,0,21.42c.64,3.58,3.88,14.89,19.75,14l.8,0a5.86,5.86,0,0,0,5.42-3.54,7.35,7.35,0,0,0-.13-5.83,7.91,7.91,0,0,0-.47-2.57L270,268.1a8.13,8.13,0,0,0-2.93-2.22,18.16,18.16,0,0,0-7.38-1.58,16.06,16.06,0,0,0-1.6.08,54.27,54.27,0,0,1-.06-10.07,23.22,23.22,0,0,1,.35-3.15c1.69,0,3.2.07,4.51.13a22.54,22.54,0,0,0,3.68-.12l.53-.06c10.73-3.22,30-23,30-23,.49-.45,1.27-1.29,1.24-1.27l.88-.94s1.65-1.74,1.54-1.66c.7-.78,1.3-1.45,1.83-2.06,0,0,0,0,0,0a6.68,6.68,0,0,0,.52-.53s.7-.9,1.06-1.35a58.58,58.58,0,0,0,5.88-9.25c.05-.11.13-.22.19-.34s.2-.41.29-.64h0c.16-.34.35-.77.55-1.22,1.69-4.08,4.89-13.9,5.15-29.57v-.48h0c.07-2.54.43-14.85.23-22.84,0-.64-.06-1.69-.06-2a5.08,5.08,0,0,0,0-.63c0-.14,0-.28,0-.4v0c-.12-4.2,0-8.24.15-11.5.07-1.48.15-2.94.27-4.39l0,0c0-.2,0-.39,0-.56h0c0-.41.09-.78.13-1.18.08-.78.14-1.24.14-1.24a21.3,21.3,0,0,1,1.28-6.75,18.25,18.25,0,0,1,1.08-3,22.65,22.65,0,0,1,2.39-3.76,29.44,29.44,0,0,1,3.34-4.16c3.55-4.17,8.6-9.55,15.26-16.23l.13-.1,2.65-2.66q3.67-3.67,7.92-8l1.54-1.58L320.7,56.36l-4.25,4.73h0l-8.55,8.6c0-.11-4.49-28.32-29.57-20.88-.18.05-.34.14-.51.19-.87,0-2.9-.1-3.34-.1a23.27,23.27,0,0,0-8.88,1.52V20.69L261.9,23.9a19.06,19.06,0,0,1-10.87,5,24.57,24.57,0,0,1,1.3-7.91,32.55,32.55,0,0,1,4.5-7.79l.56-.68,1.16-1.43-13.43,0h-.83l-13.43,0L232,12.54l.56.68A32.19,32.19,0,0,1,237.07,21a24.29,24.29,0,0,1,1.32,7.91,19,19,0,0,1-10.88-5l-3.68-3.21,0,29.73a16.41,16.41,0,0,0-12-1.65c-.19-.07-.37-.16-.57-.22-25.07-7.43-29.53,20.77-29.58,20.88l-8.54-8.6h0l-4.25-4.73L136.72,87.6l1.55,1.57q4.25,4.32,7.9,8l2.66,2.66.13.11c6.66,6.68,11.71,12.05,15.26,16.22a29.52,29.52,0,0,1,3.34,4.16,23,23,0,0,1,2.39,3.75,19,19,0,0,1,1.08,3,21.28,21.28,0,0,1,1.28,6.75s.06.45.14,1.24c0,.39.1.77.13,1.17l0,0c0,.18,0,.38,0,.57l0,0c.12,1.45.2,2.91.27,4.38.17,3.27.27,7.31.15,11.51l0,0a3.88,3.88,0,0,0,0,.4,4.93,4.93,0,0,0,0,.63c0,.35,0,1.4-.07,2-.19,8,.18,20.3.24,22.84h0V179c.25,15.68,3.47,25.49,5.16,29.57.19.45.39.88.56,1.23h0l.3.63c.06.12.13.23.19.34a58.42,58.42,0,0,0,5.86,9.25c.36.44,1.08,1.34,1.06,1.34a6.87,6.87,0,0,0,.53.54,0,0,0,0,0,0,0l1.85,2.06c-.12-.08,1.54,1.66,1.54,1.66.27.31.58.64.87.93,0,0,.76.83,1.24,1.27,0,0,19.32,19.79,30,23a4.34,4.34,0,0,0,.53.06,23.43,23.43,0,0,0,3.68.13c1.31-.07,2.83-.11,4.51-.14a23.18,23.18,0,0,1,.35,3.15,56,56,0,0,1-.06,10.07c-.6-.06-1.14-.08-1.61-.08a18.11,18.11,0,0,0-7.38,1.58,8.21,8.21,0,0,0-2.94,2.22l-1.32,2.33a8.07,8.07,0,0,0-.46,2.57,7.3,7.3,0,0,0-.13,5.83,5.83,5.83,0,0,0,5.41,3.54Zm13.46-43.43s5.46,4,5.11,19.82c-.41,17.89-7.36,21-12.58,21.71,0,0,7.52-2.9,9-13.23,1.38-9.37,1.82-19.88-3.92-26.7,0,0-5.76-6.7-14.43-1.07C220.48,239.28,228.63,231.66,237.27,238.74Zm-32.41-23.43-2.67-2.42.56,3.55L200,218a70.7,70.7,0,0,1-13.11-24,33.14,33.14,0,0,1-.68-3.77,1.64,1.64,0,0,0,0-.29l-.07-2.94c-.15-5.38.12-10.84.49-17v0c.17-2.57.43-7.68.55-10.24l0-1.45v-.42l.07-2.85c0-3.61.07-9.85-.15-14-1-18.73-4-26.46-5.24-29l11.57-13.72,8.39-10c.66.18,3.92,1.95,5.13,2.28,1,.05,5.66.81,10-2.1a9.21,9.21,0,0,0,1.61.15l.11,0c.61-.08,2.43-.43,2.69-.5a1.78,1.78,0,0,1,.37-.12,14.9,14.9,0,0,0,6.75-4.43.12.12,0,0,1,.07-.08,1.21,1.21,0,0,0,.11-.17.92.92,0,0,0,.15-.14,1.16,1.16,0,0,0,.13-.19c.05,0,.08-.11.14-.15l0,0,.05-.07.24-.36a2.82,2.82,0,0,0,.19-.26l0,0a19.89,19.89,0,0,0,2.09-4.35h7.7l0,19.1a119.09,119.09,0,0,1-20.08-2.06A31.09,31.09,0,0,1,213.43,93l-.7-.33-.5.58-8.85,10c-.27.33-.53.61-.79.93l-.25.27c-2.07,2.34-3.79,4.26-5,5.69l-2,2.27-.54.63-.17.2a1.11,1.11,0,0,0-.27,1,3.87,3.87,0,0,1,.1.45l0,.06a131.4,131.4,0,0,1,2.17,14.52c0,.16,0,.31,0,.46l.07.74c.09,1.29.17,2.6.21,3.9,0,1.14.07,2.48.07,3.84s0,2.86,0,4.38c-.08,4.28-.23,9.43-.35,14.09h0v.18c0,.34,0,.7,0,1l0,.8h0c0,.69,0,1.43-.07,2.08l0,.48c0,1-.06,1.84-.09,2.66V164c-.14,3.77-.28,6.3-.35,6.93-.37,3.38-.53,9.74-.53,10v1.11c0,1.61,0,4.45,0,5.92v.45l.07,1.24A30.1,30.1,0,0,0,196,193c0,.21.08.44.12.66s.09.57.15.85v0c.14.61.27,1.2.43,1.76,0,.13.07.27.08.38l0,0a3,3,0,0,0,.13.52,37.85,37.85,0,0,0,2.7,6.8,56.53,56.53,0,0,0,3.65,5.69l2.33,3.07.1.11.56.58.44.43.31.31Zm-1,6.92c-.61-.66-1.22-1.25-1.82-1.95l-.33-.36-.2-.23-.21-.24-.43-.52h0a.09.09,0,0,0,0-.06v0l0,0a2.6,2.6,0,0,1-.19-.24l-.06-.06a1.09,1.09,0,0,1-.15-.2h0l2.79.48ZM230.53,55.91a2,2,0,0,1-.11-.19c-.07-.06-.09-.13-.12-.16s-.17-.27-.25-.38a.32.32,0,0,1-.11-.13v0a13.54,13.54,0,0,0-2.67-2.66,18.59,18.59,0,0,1,3.43-4,23.94,23.94,0,0,1,8.4-3.85V61.44h-6.36a6,6,0,0,0-.14-.61v0a1.85,1.85,0,0,1,0-.25.15.15,0,0,1,0-.1s0,0,0-.08-.1-.36-.17-.56v0A13.66,13.66,0,0,0,231,56.65l0,0a5.21,5.21,0,0,0-.33-.52l0,0v0Zm33.73,154.6s0,.08,0,.11c0,.43,0,.93,0,1.44v1.07a.48.48,0,0,0,0,.2h-39a.25.25,0,0,0,0-.2v-.93l0-.14a12.34,12.34,0,0,0,0-1.44s0-.09,0-.11a1.07,1.07,0,0,0,.05-.34V208.9a1,1,0,0,0-1-1H223a3.92,3.92,0,0,0-2.73-3.33l-.11-4.32a2.23,2.23,0,0,0,1.5.91h.09a.54.54,0,0,0,.43-.26,1.45,1.45,0,0,0,0-1.19s0-.11,0-.24a1.21,1.21,0,0,1,.62-.67,3.09,3.09,0,0,0,1.7-3c-.05-1.36-1.67-2.56-3.34-3a5.22,5.22,0,0,0,2-1.4,1.13,1.13,0,0,0,.25-1.13,8,8,0,0,1,.08-4.47,8,8,0,0,0,.53-1.68.36.36,0,0,1,0-.12.21.21,0,0,1,0-.12A1.94,1.94,0,0,0,223,182a17.76,17.76,0,0,0-3.06-1.69l-.23-.1-.09-3.62V176c0-.28,0-.55-.06-.82h.75a.77.77,0,0,0,.79-.78,2.4,2.4,0,0,1,0-.38v-.21a7.36,7.36,0,0,0,0-1.39.81.81,0,0,0-.79-.62h-.87v-2.28c0-.49,0-1-.06-1.48h.13a.72.72,0,0,0,.29,0,3.92,3.92,0,0,0,2.57-3.32v0a.83.83,0,0,0,0-.18h.84a1.06,1.06,0,0,0,1-1v-.42c0-.29,0-.58,0-.86h41.05a7.18,7.18,0,0,0,0,.86v.42a1.06,1.06,0,0,0,1,1H267a.61.61,0,0,0,0,.18v0a4,4,0,0,0,2.56,3.32.78.78,0,0,0,.3,0H270c0,.48-.07,1-.07,1.48v2.28h-.88a.8.8,0,0,0-.77.62,6.78,6.78,0,0,0-.05,1.39v.21a1.8,1.8,0,0,1,0,.38.76.76,0,0,0,.23.58.81.81,0,0,0,.55.2h.75c0,.26,0,.53,0,.82l0,.14v.46l-.07,3.62-.21.1a17.15,17.15,0,0,0-3.08,1.69,2,2,0,0,0-1.09,1.92.22.22,0,0,1,0,.12s0,.07,0,.12a9.58,9.58,0,0,0,.54,1.68,7.9,7.9,0,0,1,.06,4.47,1.27,1.27,0,0,0,.28,1.13,5.17,5.17,0,0,0,2,1.4c-1.67.45-3.29,1.64-3.34,3a3.09,3.09,0,0,0,1.7,3,1.12,1.12,0,0,1,.61.67c.07.13.07.22,0,.24a1.37,1.37,0,0,0,0,1.19.51.51,0,0,0,.42.26h.09a2.15,2.15,0,0,0,1.49-.91l-.09,4.32a3.94,3.94,0,0,0-2.74,3.33h-1.2a1,1,0,0,0-1,1v1.27A.91.91,0,0,0,264.27,210.51Zm-58.33-46.63a.76.76,0,0,0,.77.61h1.06a4,4,0,0,0,2.6,3.55,1.31,1.31,0,0,0,.28,0h.06l-.06,2v.3a3.3,3.3,0,0,0,0,.37V171a4.83,4.83,0,0,0,0,.83h-.7a1.1,1.1,0,0,0-1,1v.59a6.77,6.77,0,0,0,.07,1.21.79.79,0,0,0,.76.58h.78l-.09,3.59h-.17a7.82,7.82,0,0,1-2.57-.41.67.67,0,0,0,0-.39l-.43-1.93c-.05-.37-.25-.78-.68-.78l-.09,0-.15,0a2,2,0,0,0-1,1.76c0,.6-.07,2.54-.07,2.65a5.67,5.67,0,0,0,5,5.45l0,1v.18c0,.06,0,.12,0,.2a5,5,0,0,0,0,.64,7.86,7.86,0,0,0-1,.34,4.14,4.14,0,0,0-2.9,3l0,.11,0,.1a21.21,21.21,0,0,0,1.25,3.63s0,0,0,.06v.13l0,.06.09.18a3.14,3.14,0,0,0,.63,1l.18.19a4,4,0,0,0,1.39,1l-.15,6.16v.51c0,.28,0,.55,0,.82a1.31,1.31,0,0,0-.31.1,3.94,3.94,0,0,0-2.55,3.19V208h-.94a.94.94,0,0,0-.92.77c-.14-.2-.27-.37-.39-.57l-.21-.34c-6.69-11.48-8.75-15-5.34-45.58h6.71v.35A4.55,4.55,0,0,0,205.93,163.89Zm16.4-15.52,1.61-2h0l.77-1h0l1.59-2.05h0l.77-1h0l.61-.76v-4.32h0v-1h0v-2h0v-1h0v-1.71l0-6,.19,0H235v0h.87v0h8.32v0h.87v0h8.42v0h.87v0h7.17l.19,0v1.68h-.05v1h.05v2h0v1h0v2.06h0v1h0v2h0v1h0v2h0v1h0v1.29l.6.76h0l.77,1h0l1.6,2.05h0l.77,1h0l1.6,2h0l.78,1h0l1.61,2.06h0l.87,1.11v0l1.5,1.94,1,1h3.42v5H252.1v-8.78a8.32,8.32,0,0,0-2.05-4.38,7.11,7.11,0,0,0-.88-.85,6.91,6.91,0,0,0-1.59-.89,8,8,0,0,0-.88-.31,7.69,7.69,0,0,0-1.6-.27l-.56,0c-.11,0-.2,0-.31,0a8.72,8.72,0,0,0-1.58.2,7.35,7.35,0,0,0-.87.25,6.69,6.69,0,0,0-1.6.79,6.57,6.57,0,0,0-.86.7,8.44,8.44,0,0,0-2.3,4.56l0,.2v8.78H213.12v-5h3.28l1.17-1,4.78-6.07Zm60.4,30.26a1.93,1.93,0,0,0,.6-.32.25.25,0,0,0,.11,0s0,0,.06,0l-.06,1.51a5,5,0,0,1-4.39,4.85l-.13-5.17h.15A8.46,8.46,0,0,0,282.74,178.63Zm-.53-.5.42-1.95a.56.56,0,0,1,.07-.24,1.39,1.39,0,0,1,.64,1.57,2.11,2.11,0,0,1-1,.63h-.13Zm-2.35,10a3.65,3.65,0,0,1,2.51,2.51,21.21,21.21,0,0,1-1.2,3.56,1.44,1.44,0,0,0-.11.28,1.91,1.91,0,0,1-.32.63,5.27,5.27,0,0,0-3.46-1.64,24.24,24.24,0,0,0-3.16-.24,22.56,22.56,0,0,1-3.22-.23,7.15,7.15,0,0,1-4.21-2,.67.67,0,0,1-.18-.56,8.16,8.16,0,0,0-.08-4.86h0a14.23,14.23,0,0,0,6.53,1.55A20.17,20.17,0,0,1,279.86,188.14Zm-13.06,10.18a2.51,2.51,0,0,1-1.37-2.42c.09-1.28,2.15-2.5,3.84-2.66a.42.42,0,0,0,.13,0v0c0,.51-.06,1-.07,1.56v1.32l-.07,2.59s0,.06,0,.09,0,.07,0,.1a1.92,1.92,0,0,1-1.5,1.63.87.87,0,0,1,.05-.64C268,199.45,267.49,198.62,266.81,198.32Zm2.92,7.06h9.61l.2.1A3.07,3.07,0,0,1,281.6,208a.41.41,0,0,1,0,.26l-14.25,0A3.11,3.11,0,0,1,269.72,205.38Zm.42-.61.2-9.07a18,18,0,0,1,.09-2.18s.05,0,.05,0h.07a.59.59,0,0,1,.23,0,17.29,17.29,0,0,0,2.75.25l.82,0c.5,0,1,0,1.51,0h.24a16.19,16.19,0,0,1,1.87.28l.14,0,.11,0h.05a1.82,1.82,0,0,1,.26.09l.21,8.8c0,.16,0,.33,0,.49a2.8,2.8,0,0,1-.05,1.07h-5.59C271.93,204.8,271,204.78,270.14,204.77Zm9.17-10a3.44,3.44,0,0,1,.62.41,1.19,1.19,0,0,1,.33.52,3.12,3.12,0,0,1-.89.66Zm-13.43-10.9a1.48,1.48,0,0,1,.84-1.37,17.63,17.63,0,0,1,2.78-1.54l.15-.07-.13,5.22h0l-.09,0a11.17,11.17,0,0,1-2.64-1l0,0A1.69,1.69,0,0,1,265.88,183.88Zm10,2.81c-1-.08-1.91-.12-2.85-.15a2.85,2.85,0,0,1-.45,0h-.43l-.13,0h-.15a6.82,6.82,0,0,1-1.13-.14l-.13,0,.16-9.67a2.84,2.84,0,0,0,0-.42,8.38,8.38,0,0,1,.11-1.26H278a.14.14,0,0,1,0,.07l.29,11.21c0,.21,0,.57,0,.78A15.72,15.72,0,0,0,275.89,186.69Zm-6.54-12.39a3.77,3.77,0,0,1,0-.39,11,11,0,0,1,0-1.16h10.28a.23.23,0,0,1,.06.08v.64a2.3,2.3,0,0,1,0,.83Zm8.58-2.16h-7v-2.06c0-.19,0-.37,0-.55,0-.56,0-1.17.08-1.68,2.37-.07,4.55-.07,6.82,0l0,0,.07,2.18c0,.21,0,.48,0,.76A6.65,6.65,0,0,1,277.93,172.14Zm-7.84-4.94a3.07,3.07,0,0,1-2-2.6v-.06a.41.41,0,0,1,0-.31.19.19,0,0,1,.11,0l12.68,0s0,.12,0,.18a3.15,3.15,0,0,1-2,2.79Zm-3.78-3.61s-.06,0-.09-.08v-.4a4.45,4.45,0,0,1,0-.86h16.49c0,.09,0,.18,0,.29a6,6,0,0,1,0,1Zm-43.15-1.33a6.94,6.94,0,0,1,0,.86c0,.14,0,.28,0,.4a.24.24,0,0,1-.09.08H206.68a5.47,5.47,0,0,1,0-1,2.28,2.28,0,0,0,0-.29Zm-.24,23.37h0a8.44,8.44,0,0,0-.07,4.86.66.66,0,0,1-.16.56,7.17,7.17,0,0,1-4.22,2,22.33,22.33,0,0,1-3.22.23,24.94,24.94,0,0,0-3.18.24,5.22,5.22,0,0,0-3.42,1.64,1.69,1.69,0,0,1-.33-.63,3,3,0,0,1-.11-.28,21.22,21.22,0,0,1-1.21-3.56,3.68,3.68,0,0,1,2.52-2.51,20.22,20.22,0,0,1,6.86-1A14.07,14.07,0,0,0,222.92,185.62Zm-3.17-4.71.14.07a18.48,18.48,0,0,1,2.8,1.54,1.45,1.45,0,0,1,.83,1.37,1.68,1.68,0,0,1-.83,1.18l0,0a11.4,11.4,0,0,1-2.65,1l-.09,0h0ZM221.67,200a.83.83,0,0,1,.05.64,1.91,1.91,0,0,1-1.5-1.63.51.51,0,0,1,0-.1s0-.06,0-.09l-.06-2.59v-1.32c0-.52,0-1-.09-1.56v0a.5.5,0,0,0,.14,0c1.7.16,3.76,1.38,3.84,2.66a2.51,2.51,0,0,1-1.38,2.42A1.51,1.51,0,0,0,221.67,200Zm-11.59,5.41h9.58a3.1,3.1,0,0,1,2.41,2.82l-14.25,0a.94.94,0,0,1,0-.26,3.07,3.07,0,0,1,2.07-2.49C210,205.41,210.05,205.38,210.09,205.38Zm0-9a3.16,3.16,0,0,1-.9-.66,1.37,1.37,0,0,1,.34-.52,3.09,3.09,0,0,1,.6-.41Zm.59,7.35c0-.16,0-.33,0-.49l.21-8.8a1.71,1.71,0,0,1,.27-.09h0l.13,0,.14,0a16.16,16.16,0,0,1,1.85-.28h.15a.33.33,0,0,1,.1,0c.49,0,1,0,1.52,0l.8,0a17.68,17.68,0,0,0,2.77-.25.5.5,0,0,1,.23,0h.08l.05,0c.07.69.07,1.46.07,2.18l.21,9.07c-.84,0-1.8,0-3,0H210.7A2.78,2.78,0,0,1,210.64,203.72Zm-4-25.09a8.48,8.48,0,0,0,3.65.79h.14l-.11,5.17a5,5,0,0,1-4.39-4.85l-.06-1.51s0,0,0,0l.1,0A1.86,1.86,0,0,0,206.68,178.63Zm-.61-1.12a1.38,1.38,0,0,1,.64-1.57.81.81,0,0,1,.07.24l.41,1.95h-.13A2.08,2.08,0,0,1,206.07,177.51Zm12.61,8.84a7.17,7.17,0,0,1-1.14.14h-.14l-.13,0h-.44a2.94,2.94,0,0,1-.44,0c-.95,0-1.93.06-2.87.15A15.53,15.53,0,0,0,211,187a7.55,7.55,0,0,1,0-.78l.27-11.21s0-.06,0-.07h7.13a6.87,6.87,0,0,1,.1,1.26c0,.14,0,.29,0,.42l.17,9.67Zm-9-12.06a3.14,3.14,0,0,1,0-.83c0-.21,0-.44,0-.64a.28.28,0,0,1,.07-.08H220a7.35,7.35,0,0,1,0,1.16,2.6,2.6,0,0,1,0,.39Zm1.72-3.47c0-.28,0-.55,0-.76l.06-2.18a.05.05,0,0,1,0,0c2.27-.07,4.45-.07,6.81,0,.05.52.06,1.12.09,1.68v2.6h-7A6,6,0,0,1,211.44,170.83Zm-.91-3.63a3.19,3.19,0,0,1-2-2.79c0-.06,0-.17,0-.18l12.68,0c.05,0,.1,0,.11,0s0,.21,0,.31v.06a3.07,3.07,0,0,1-2,2.6Zm-4.74,41.7,0,0,18.15,0a.53.53,0,0,1,.1.08v1.15H206.24l-.32-.43c-.07-.07-.1-.14-.13-.18Zm59.55,0a.43.43,0,0,1,.11-.08l18.15,0s0,0,0,0v.56a1.5,1.5,0,0,0-.13.18l-.33.43H265.34Zm18-.93h-.92a.52.52,0,0,0,0-.13,3.9,3.9,0,0,0-2.55-3.19,1,1,0,0,0-.29-.1,3.73,3.73,0,0,0,0-.82v-.51l-.15-6.16a3.94,3.94,0,0,0,1.38-1l.17-.19a3,3,0,0,0,.63-1c.05-.07.07-.13.11-.18v-.06c0-.06,0-.09,0-.13a.09.09,0,0,0,0-.06,19.66,19.66,0,0,0,1.24-3.63l0-.1v-.11a4.22,4.22,0,0,0-2.9-3,8.78,8.78,0,0,0-1-.34,4.84,4.84,0,0,0,0-.64v-.38l-.05-1a5.7,5.7,0,0,0,5-5.45c0-.1,0-2-.09-2.65a2,2,0,0,0-1.06-1.76l-.12,0-.1,0c-.43,0-.62.41-.67.78L281.6,178a.73.73,0,0,0,0,.39,7.74,7.74,0,0,1-2.57.41h-.15l-.11-3.59h.78a.81.81,0,0,0,.77-.58,9.26,9.26,0,0,0,.05-1.21v-.59a1.08,1.08,0,0,0-1-1h-.69a6.92,6.92,0,0,0,0-.83v-.26a2.28,2.28,0,0,0,0-.37v-.3l-.06-2h.06a1.25,1.25,0,0,0,.28,0,4,4,0,0,0,2.6-3.55h1.07a.76.76,0,0,0,.76-.61,6.21,6.21,0,0,0,0-1.28v-.35h6.7c3.4,30.55,1.36,34.1-5.34,45.58l-.23.34c-.11.2-.23.37-.36.57A1,1,0,0,0,283.34,208Zm6.57-76.11c-.07,3-.07,6.23-.08,10,0,1.6,0,3.27,0,5.06,0,5.14,0,9.21.25,13.56H278v-6.88h-4.65l-9.95-12.66,0-17H226l0,17-10,12.66h-4.63v6.88h-12c.23-4.35.29-8.42.25-13.56,0-1.78,0-3.45,0-5.06,0-3.75,0-7-.07-10-.12-3.93-1.89-16.11-2.19-17.67a5.46,5.46,0,0,1,.37-.51c1.77-2.23,8.45-10,15.93-17.76,6.36,1.86,15.48,3,25.76,3.35l-.05,15h-.92l-1.3-6.53h.32c0-.39,0-.77,0-1.15,0-.79,0-1.55,0-2.21h-1.66v1.52l-1.78,0v-.69c0-.3,0-.57,0-.84a15.87,15.87,0,0,0-2,0c0,1,0,1,0,1.41v.12h-1.85v-.13c0-.28,0-.56,0-.81v-.6l-1.7,0,0,0v3.3h.4l-1.18,6.53H226v8.06H263.4c0-.68,0-8.06,0-8.06h-1.72l-1.31-6.52h.33c0-.39,0-.77,0-1.15,0-.79,0-1.55,0-2.21H259v1.52l-1.77,0v-.69c0-.3,0-.57,0-.84a15.88,15.88,0,0,0-2,0c0,1,0,1,0,1.41v.12h-1.85v-.13c0-.28,0-.56,0-.81v-.6l-1.68,0,0,0v3.3h.4l-1.2,6.53h-.91v-15c10.3-.3,19.46-1.49,25.84-3.35,7.47,7.8,14.17,15.53,15.94,17.76.17.2.31.42.37.51C291.79,115.76,290,127.94,289.91,131.86Zm-53.31-16c0,.25,0,.51,0,.74v.22l-3.12,0H231v-2.52l-2.37-.06.22-1.23.27-1.49.21-1.22h0l.18-1h0l.29-1.6H236l.32,1.57h0l.2,1h0l.12.61.68,3.33-.76.1v.5h0v1Zm21.59-1.63V117h-5.72v-.1h0v-1h0v-1h0v-.48c0-.05-.06-.06-.15-.06h-.45l1.22-6.54h6.29l.95,5.24h0l.26,1.3h0c-.56,0-1.1,0-1.62,0v0Zm-6.43,1.38v2.5h7.47l0-2.5h3.09v5.2H227.14v-5.2h3.1v2.5h7.17l0-2.5h3.17v2.5h8v-2.5Zm-12.32-40h-7.12a38.27,38.27,0,0,0,1-10.14c0-.43-.08-1.09-.19-1.9h6.37Zm-32,135.91c-.23-.29-.44-.56-.59-.72H224c0,.39,0,.88,0,1.38v.8H208.64C208.45,212.81,207.87,212.08,207.41,211.54Zm58.07,13.84a50.4,50.4,0,0,0-10-3.77,47.49,47.49,0,0,0-10.38-1.21h-.83a47.41,47.41,0,0,0-10.38,1.21,51.56,51.56,0,0,0-10,3.77,45.53,45.53,0,0,1-13.41-10.44h68.43A45.58,45.58,0,0,1,265.48,225.38ZM280.79,213H265.34a7.79,7.79,0,0,0,0-.8c0-.51,0-1,0-1.38h17.2c-.14.16-.37.43-.59.72C281.54,212.08,280.94,212.81,280.79,213Zm5.89,3.43.56-3.55-2.67,2.42-2.15-1.06.31-.31.43-.43.58-.58.08-.11,2.34-3.07a60.6,60.6,0,0,0,3.65-5.69,38,38,0,0,0,2.71-6.8,2.13,2.13,0,0,0,.13-.52v0a3.52,3.52,0,0,1,.09-.38c.15-.55.3-1.15.43-1.76v0c.05-.28.1-.58.15-.85s.07-.44.11-.66a25.8,25.8,0,0,0,.42-3.35l.05-1.24,0-.25V188c.05-1.47,0-4.31,0-5.92V181c0-.28-.15-6.63-.55-10-.05-.63-.19-3.16-.33-6.93v-.18c0-.82-.06-1.7-.1-2.66l0-.48c0-.65,0-1.38-.07-2.08v-.8h0c0-.33,0-.69,0-1l0-.18h0c-.14-4.66-.26-9.81-.35-14.09,0-1.52,0-3,0-4.38s0-2.7,0-3.84c0-1.29.15-2.61.22-3.9l.07-.74c0-.15,0-.3,0-.46A128.11,128.11,0,0,1,295,114.68v-.06c0-.1.06-.31.1-.45a1.08,1.08,0,0,0-.27-1l-.16-.2c-.14-.13-.32-.35-.56-.63l-2-2.27c-1.26-1.43-3-3.35-5.05-5.69l-.23-.27c-.26-.31-.53-.59-.8-.93l-8.85-10-.52-.58L276,93a31.06,31.06,0,0,1-5.89,1.68,118.46,118.46,0,0,1-20.15,2.07V77.65h7.74A19.94,19.94,0,0,0,259.78,82v0c.07.09.12.18.19.26l.25.36.05.07,0,0,.11.15c.05.05.08.11.15.19a1.84,1.84,0,0,1,.12.14c0,.07.09.11.11.17a.22.22,0,0,1,.09.08,14.85,14.85,0,0,0,6.75,4.43,1.8,1.8,0,0,1,.37.12c.27.07,2.09.42,2.67.5l.13,0a7.62,7.62,0,0,0,1.44-.12c4.41,3.16,9.31,2.37,10.3,2.31,1.21-.33,4.47-2.09,5.12-2.28l8.4,10,11.55,13.72c-1.26,2.5-4.24,10.23-5.24,29-.23,4.14-.19,10.37-.15,14l.07,2.85v.42l0,1.45c.13,2.57.38,7.67.56,10.24v0c.37,6.2.64,11.68.49,17l-.08,2.94a2.59,2.59,0,0,0,0,.29,33.49,33.49,0,0,1-.68,3.77,70.53,70.53,0,0,1-13,23.86ZM256.3,63.6c-.09.81-.15,1.47-.16,1.9a37.84,37.84,0,0,0,.94,10.14h-7.14v-12Zm-6-2.16V44.51a24,24,0,0,1,8.42,3.85,18.11,18.11,0,0,1,3.42,4A13.3,13.3,0,0,0,259.48,55l0,0a.93.93,0,0,1-.09.13l-.26.38s-.06.1-.11.16l-.13.19c-.05.07-.05.09-.05.09v0l0,0a3.65,3.65,0,0,0-.32.52l0,0a14.94,14.94,0,0,0-1.34,3.13v0c-.05.2-.11.41-.15.56s0,.07,0,.08a.14.14,0,0,1,0,.1,1.17,1.17,0,0,1-.05.25v0c0,.22-.08.41-.13.61ZM247.21,258.8c-.35-15.79,5.1-19.82,5.1-19.82,8.65-7.08,16.79.54,16.79.54-8.66-5.62-14.43,1.07-14.43,1.07-5.74,6.81-5.29,17.33-3.92,26.7,1.51,10.32,9,13.23,9,13.23C254.56,279.8,247.6,276.69,247.21,258.8ZM260.37,266a14.93,14.93,0,0,1,5.76,1.18l.44.18a7.54,7.54,0,0,1,.92.51,5.46,5.46,0,0,1,2.61,4.86c0,.15,0,.27,0,.34a6.22,6.22,0,0,1-4.59,2.22,7.36,7.36,0,0,1-3.76-1.16,1,1,0,0,1-.12-.09l-.11-.07c-2.57-1.86-3.5-6.85-3.66-7.73A13.7,13.7,0,0,1,260.37,266Zm5-16.17a11.28,11.28,0,0,1-1.35.09l-5.37-.22c.58-2.2,1.73-4.75,4-4.8h.22a2.84,2.84,0,0,1,2.35.81C265.79,246.48,265.84,247.88,265.36,249.79Zm5.16-3.36a7.52,7.52,0,0,1-3.54,3.32c.53-2.2.39-3.85-.47-4.94s-2.08-1.46-3.94-1.41c-2.7.08-4.63,2.42-5.56,6.79l-.05.09a29.4,29.4,0,0,0-.56,4.06c-.69,9.88.56,16.6,3.68,19.93a6.71,6.71,0,0,0,5.07,2.26h.09a7.8,7.8,0,0,0,5.07-1.9,1.64,1.64,0,0,0,.27-.39,6,6,0,0,1-.35,4.54c-.79,1.39-2.25,2.13-4.36,2.13h-.06c-3.14,0-13.49-1.68-13.9-23.39-.16-8.59,2.39-13,4.55-15.23a9.54,9.54,0,0,1,6.85-3,7.71,7.71,0,0,1,7.09,4.1A3.57,3.57,0,0,1,270.52,246.43ZM304.73,72.88,307.91,75l7.3-7.48,5.65-6.31L348.26,88c-3.68,3.74-7.05,7.11-10,10.1-9.45,9.47-15.71,15.73-19.43,21.27a.62.62,0,0,1-.13.19.24.24,0,0,1,0,.08l-.11.11,0,.12v0a0,0,0,0,0,0,0c-.37.56-.66,1-.89,1.44a1.16,1.16,0,0,0-.09.17c-.09.15-.15.28-.22.41s-.07.13-.11.17v0a9.39,9.39,0,0,0-.43.86c-3.72,7.73-3.52,22.79-3.38,32.77v.72c0,2.92.13,5.92.19,8.81.31,9.81.6,19.94-.92,29.38a56.48,56.48,0,0,1-3.86,13.59,45.61,45.61,0,0,1-7.87,12.34,193.9,193.9,0,0,1-13.78,14,96.9,96.9,0,0,1-14,10.92,6.36,6.36,0,0,0-.58-3.16,25.52,25.52,0,0,0-2.15-3.32s0,0,0-.05a2.1,2.1,0,0,0-.18-.2,95.07,95.07,0,0,0,14.78-12,86.82,86.82,0,0,0,11.23-13.57,70.36,70.36,0,0,0,8.7-18.15v0a39.71,39.71,0,0,0,.78-4.29c.52-6.44.13-12.75-.31-20.07l-.06-.73a232.9,232.9,0,0,1-.53-28.66,121.54,121.54,0,0,1,2.65-21A28.37,28.37,0,0,1,310,113l.63-1-.48-.55c-5.18-6.08-16.62-19.79-20.87-24.8a9.09,9.09,0,0,0,1.85-1.53c1.52-1.77,3.17-5.1,2.32-11-.25-1.71-2.49-8.06-8.83-8.06a1,1,0,0,0-.21,0A4.86,4.86,0,0,0,280,68.51a7.23,7.23,0,0,0-.82,2.44c-.64,3.81.78,7.18,2.49,8.24a2.46,2.46,0,0,0,.74.27,4.61,4.61,0,0,0,.95.1,2.4,2.4,0,0,0,2.4-1.44c.33-.88.19-2.57-.25-3a1.29,1.29,0,0,0-.82-.36.58.58,0,0,0-.57.36,1,1,0,0,0,0,.18v.1a4.31,4.31,0,0,0,0,.52,2.83,2.83,0,0,1-.24,1.3.84.84,0,0,1-.53.4,1.54,1.54,0,0,1-1.62-.63c-.95-1.18-1.36-3.9-.91-6.06.39-1.87,1.4-3,3-3.15a8.25,8.25,0,0,1,2.23,0h.15A8.23,8.23,0,0,1,288.72,69a9.54,9.54,0,0,1,3.08,5.49,12.68,12.68,0,0,1-.88,8.07,8.05,8.05,0,0,1-2.47,3.11l0,0a1.79,1.79,0,0,1-.3.21,5.57,5.57,0,0,1-3,.86,7.92,7.92,0,0,1-3.92-1.17c-5.86-3.32-7.76-11.9-6.55-19.24,1.27-7.77,5-12.79,10-13.28a15.46,15.46,0,0,1,7.56,1.14c8,3.4,11.88,13,12.42,18.31Zm-2.47-13.74.33.63c.26.5.48,1,.68,1.46s.34.88.46,1.28a7.3,7.3,0,0,1,.39,2.15,22.92,22.92,0,0,0-2.71-5.06c-7.18-10.17-21.48-12.56-27.4.27-3.94,10.5-1.57,27.35,9.79,28.08.5-.07.7-.1.47.05-.16,0-.31,0-.47-.05-1.48.22-5.65.87-9.33-1.34-5.7-3.1-7.95-9.57-7.74-18,.09-7.46,5.06-17,15.26-19.56,10.61-1.49,17.06,4.57,20.07,9.75ZM275,50.26l.17,0a12.37,12.37,0,0,0-1.52.87c-2.83,1.84-8.72,6.86-9.53,17.11a25.45,25.45,0,0,0,4.92,17c.25.34.5.67.78,1h0S257.63,85.5,258,67C258,67,257.29,51.25,275,50.26Zm-48.82-1.16s0,0,0,0V45.57l.07-19.31a23.44,23.44,0,0,0,14.28,5.48h.15v-.15c0-.07,0-.26,0-.52.24-5.32-.37-12.58-4.57-17.35h17.16c-4.17,4.77-4.78,12-4.55,17.35,0,.26,0,.45,0,.52v.15h.15a23.47,23.47,0,0,0,14.26-5.48l.08,19.31v3.55s0,0,0,0v1.13c-.17-.24-.35-.48-.56-.74l-.07-.1a14,14,0,0,0-2-2.15,14.33,14.33,0,0,0-3.69-2.47,26.31,26.31,0,0,0-8-2.57l-.95-.07v43l-.13,31.76h-6.22l-.14,0V99.93l0-57.81-1,.07a26.51,26.51,0,0,0-8,2.57,14.3,14.3,0,0,0-3.7,2.47,14.59,14.59,0,0,0-2,2.15s0,.06-.09.1c-.18.25-.37.49-.56.74Zm5.16,17.4c.32,16.68-9.17,18.23-10.8,18.38l-.26,0a20.64,20.64,0,0,0,1.29-1.71c5.21-7.59,3.92-16.41,3.92-16.41-.87-11-8.07-15.34-10.36-16.44-.43-.21-.71-.31-.71-.31l.19,0C231.76,51,231.35,66.49,231.35,66.49Zm-24-17.38A18.9,18.9,0,0,1,219,56.38,21.17,21.17,0,0,1,223,68c.21,8.16-1.89,15.08-7.48,18.08a10.34,10.34,0,0,1-8.23,1l-.16,0c-.19-.12-.09-.1.16,0C218,86,219.8,69.82,215.9,59.55c-6.66-14.29-24.75-9.59-30,4.14C185.75,60.13,192.1,47,207.37,49.11Zm9.09,196.17a96.49,96.49,0,0,1-14-10.92c-4.68-4.28-9.82-9.53-13.79-14A45.84,45.84,0,0,1,180.81,208,57.1,57.1,0,0,1,177,194.44c-1.52-9.43-1.22-19.57-.92-29.37.06-2.9.15-5.89.19-8.82v-.72c.15-10,.35-25-3.37-32.77a5.69,5.69,0,0,0-.44-.84v0s-.07-.12-.11-.17-.13-.26-.22-.4a1.22,1.22,0,0,0-.09-.17c-.23-.41-.52-.88-.88-1.44l0,0v0l0-.11-.11-.11s0,0,0-.08a1.63,1.63,0,0,1-.13-.19c-3.72-5.55-10-11.8-19.43-21.27q-4.49-4.48-10-10.09l27.39-26.87,5.66,6.31,7.29,7.48,3.18-2.07.07-.42c.54-5.29,4.39-14.91,12.42-18.31a15.47,15.47,0,0,1,7.54-1.15c5,.49,8.77,5.52,10,13.28,1.21,7.34-.7,15.92-6.55,19.24a7.88,7.88,0,0,1-3.91,1.17,5.53,5.53,0,0,1-3-.86,1.64,1.64,0,0,1-.3-.21s0,0,0,0a8,8,0,0,1-2.47-3.11,12.59,12.59,0,0,1-.88-8.07,9.5,9.5,0,0,1,3.08-5.49,8,8,0,0,1,2.61-1.11h.13a8.43,8.43,0,0,1,2.25,0c1.54.19,2.57,1.28,2.95,3.15.45,2.16.05,4.88-.9,6.06a1.53,1.53,0,0,1-1.63.63.88.88,0,0,1-.53-.4,2.73,2.73,0,0,1-.23-1.3,3.24,3.24,0,0,0,0-.52l0-.09a1.59,1.59,0,0,0,0-.18.59.59,0,0,0-.57-.36,1.29,1.29,0,0,0-.82.36c-.45.39-.58,2.08-.25,3a2.4,2.4,0,0,0,2.39,1.44,5.07,5.07,0,0,0,.95-.1,2.59,2.59,0,0,0,.74-.27c1.71-1.06,3.13-4.43,2.49-8.24a7.36,7.36,0,0,0-.82-2.44,4.84,4.84,0,0,0-4.33-2.49.91.91,0,0,0-.21,0c-6.34,0-8.57,6.36-8.83,8.06-.85,5.89.81,9.23,2.33,11a8.68,8.68,0,0,0,1.85,1.53c-4.25,5-15.71,18.72-20.89,24.79l-.48.56.62,1a27.76,27.76,0,0,1,2.52,7.26,120.89,120.89,0,0,1,2.65,21,232.88,232.88,0,0,1-.53,28.66l-.06.73c-.44,7.32-.82,13.63-.31,20.07a37.89,37.89,0,0,0,.78,4.29v0a70.19,70.19,0,0,0,8.7,18.15,86.88,86.88,0,0,0,11.23,13.58,95.6,95.6,0,0,0,14.8,12,1.11,1.11,0,0,0-.19.2s0,0,0,0a26.94,26.94,0,0,0-2.15,3.33A6.22,6.22,0,0,0,216.46,245.28Zm9.1,4.35a12,12,0,0,1-1.36-.09c-.48-1.92-.42-3.31.15-4.12a2.85,2.85,0,0,1,2.36-.81h.23c2.27.05,3.41,2.6,4,4.8Zm-3.48,17.95a7.13,7.13,0,0,1,.92-.5l.45-.18a14.7,14.7,0,0,1,5.74-1.19,13.07,13.07,0,0,1,2.53.24c-.15.87-1.08,5.86-3.65,7.72l-.1.07-.12.09a7.42,7.42,0,0,1-3.77,1.16,6.23,6.23,0,0,1-4.59-2.22c0-.06,0-.18,0-.34A5.46,5.46,0,0,1,222.07,267.58Zm-2.77,10.94A6.07,6.07,0,0,1,219,274a1.46,1.46,0,0,0,.27.38,7.73,7.73,0,0,0,5.07,1.9h.1a6.71,6.71,0,0,0,5.07-2.25c3.13-3.34,4.38-10,3.68-19.93a29.41,29.41,0,0,0-.56-4.07l0-.08c-.94-4.36-2.86-6.71-5.57-6.79-1.85-.05-3.17.42-3.92,1.41s-1,2.74-.47,4.94a7.47,7.47,0,0,1-3.54-3.31,3.57,3.57,0,0,1,.11-3,7.68,7.68,0,0,1,7.07-4.11,9.55,9.55,0,0,1,6.85,3c2.17,2.2,4.71,6.64,4.55,15.23-.42,21.71-10.76,23.4-13.91,23.4h-.06C221.56,280.65,220.09,279.91,219.31,278.52Z"/></svg>